<svg width="825" height="837" viewBox="0 0 825 837" fill="none" xmlns="http://www.w3.org/2000/svg">
<path d="M626.38 0.540911L573.314 27.1556C571.37 27.9817 569.713 29.3615 568.549 31.123C567.384 32.8844 566.763 34.9496 566.764 37.0613V61.8799C566.717 84.4423 573.297 106.522 585.687 125.378C595.248 139.892 607.929 158.56 629.029 169.21H638.535C662.029 161.953 679.555 142.958 690.259 126.63C702.647 107.773 709.227 85.6938 709.181 63.1317V37.0613C709.181 34.9522 708.563 32.8895 707.402 31.1287C706.241 29.3679 704.589 27.9865 702.65 27.1556L642.2 1.3936C639.497 0.250633 629.065 -0.602052 626.38 0.540911Z" fill="#E0E0E0"/>
<path d="M624.239 1.39369L563.789 27.1557C561.846 27.9818 560.189 29.3616 559.024 31.1231C557.859 32.8845 557.239 34.9497 557.24 37.0614V61.88C557.241 84.8731 564.063 107.349 576.842 126.464C589.621 145.579 607.782 160.474 629.029 169.264C652.505 162.007 670.03 143.012 680.752 126.684C693.143 107.808 699.722 85.7112 699.675 63.1318V37.0614C699.676 34.9497 699.055 32.8845 697.891 31.1231C696.726 29.3616 695.069 27.9818 693.125 27.1557L632.675 1.39369C631.34 0.832354 629.906 0.543213 628.457 0.543213C627.009 0.543213 625.575 0.832354 624.239 1.39369Z" fill="#F5F5F5"/>
<path d="M699.475 56.4009C699.557 56.7761 699.594 57.1599 699.584 57.5438C699.584 58.3965 699.675 59.4851 699.729 60.8276C699.784 62.1701 699.874 64.0025 699.729 66.0344C699.584 68.0663 699.729 70.3886 699.403 72.9285C699.076 75.4684 698.985 78.3712 698.459 81.2558C698.223 82.7434 698.042 84.2855 697.733 85.8639C697.425 87.4423 697.044 89.0388 696.699 90.6898C695.027 97.8527 692.688 104.844 689.715 111.572C686.659 118.266 683.016 124.677 678.829 130.73C676.815 133.451 674.947 136.172 672.951 138.331C671.971 139.474 671.137 140.635 670.139 141.651L667.382 144.572C665.658 146.386 663.898 147.983 662.429 149.398C660.959 150.813 659.617 151.92 658.51 152.809L656.133 154.877C655.851 155.135 655.541 155.36 655.208 155.548C655.449 155.247 655.723 154.973 656.024 154.732L658.474 152.537C659.544 151.611 660.85 150.45 662.265 148.908C663.68 147.366 665.422 145.951 667.091 144.028L669.794 141.071C670.72 140.055 671.609 138.894 672.552 137.751C674.511 135.483 676.326 132.852 678.303 130.131C682.411 124.106 685.992 117.739 689.007 111.1C691.947 104.421 694.284 97.4937 695.992 90.3995L697.062 85.6099C697.389 84.0497 697.588 82.5076 697.842 81.0381C698.387 78.099 698.604 75.3233 698.876 72.7833C699.149 70.2434 699.185 67.9575 699.33 65.9256C699.475 63.8936 699.457 62.1701 699.457 60.7369C699.457 59.3036 699.457 58.3058 699.457 57.4531C699.427 57.1027 699.433 56.7501 699.475 56.4009Z" fill="#E0E0E0"/>
<path d="M623.949 110.356L589.279 82.798L598.895 70.6971L622.153 89.1841L656.115 51.176L667.636 61.4808L623.949 110.356Z" fill="white"/>
<path d="M787.737 136.354H781.17V100.632C781.17 96.59 779.564 92.7138 776.706 89.8558C773.848 86.9979 769.972 85.3923 765.93 85.3923C761.888 85.3923 758.012 86.9979 755.154 89.8558C752.296 92.7138 750.691 96.59 750.691 100.632V136.354H744.123V100.632C744.123 94.8578 746.417 89.3204 750.5 85.2376C754.582 81.1548 760.12 78.8611 765.894 78.8611C771.668 78.8611 777.205 81.1548 781.288 85.2376C785.371 89.3204 787.664 94.8578 787.664 100.632L787.737 136.354Z" fill="#EBEBEB"/>
<path d="M789.715 112.116H742.128C739.042 112.116 736.54 114.617 736.54 117.704V152.591C736.54 155.677 739.042 158.179 742.128 158.179H789.715C792.801 158.179 795.303 155.677 795.303 152.591V117.704C795.303 114.617 792.801 112.116 789.715 112.116Z" fill="#EBEBEB"/>
<path d="M770.43 136.336C771.014 135.742 771.475 135.039 771.786 134.267C772.098 133.495 772.253 132.669 772.244 131.836C772.253 130.629 771.924 129.444 771.294 128.414C770.665 127.383 769.761 126.55 768.683 126.006C767.605 125.463 766.396 125.232 765.194 125.338C763.991 125.445 762.843 125.886 761.878 126.611C760.912 127.336 760.169 128.316 759.731 129.441C759.294 130.566 759.179 131.791 759.4 132.978C759.622 134.165 760.171 135.266 760.985 136.157C761.799 137.049 762.846 137.695 764.007 138.023L762.629 144.155H768.779L767.545 138.023C768.619 137.716 769.595 137.135 770.375 136.336" fill="#FAFAFA"/>
<path d="M41.8908 657.726C34.8447 653.317 26.8822 650.58 18.6142 649.725C14.8044 649.326 10.6498 649.435 7.6019 651.739C7.24804 651.941 6.95515 652.235 6.75402 652.589C6.55289 652.944 6.45096 653.346 6.45893 653.753C6.64479 654.328 7.03109 654.818 7.54747 655.132C12.4897 658.658 18.3031 660.764 24.3571 661.221C30.4111 661.679 36.4749 660.47 41.8908 657.726Z" fill="#E0E0E0"/>
<path d="M41.2919 657.073C35.9027 653.111 30.8703 648.686 26.252 643.847C21.6242 638.973 18.3748 632.956 16.8362 626.413C16.5297 625.443 16.4376 624.419 16.566 623.41C16.6944 622.401 17.0404 621.433 17.58 620.571C29.5539 629.932 38.9697 642.051 41.2919 657.073Z" fill="#E0E0E0"/>
<path d="M41.7638 657.636C40.6596 651.087 40.758 644.392 42.0541 637.879C43.3864 631.312 47.1351 625.485 52.5584 621.551C54.6267 626.395 53.7377 631.983 52.2863 637.026C50.0306 644.864 46.5067 652.279 41.8545 658.978" fill="#E0E0E0"/>
<path d="M53.5197 678.699C46.4678 679.839 39.9444 683.142 34.8513 688.151C29.4944 693.018 25.7639 699.415 24.1655 706.475C31.1684 706.039 37.101 701.032 41.4007 695.589C45.7004 690.146 48.6576 683.996 53.429 678.826" fill="#E0E0E0"/>
<path d="M56.0778 682.055C53.2692 674.929 52.2844 667.214 53.2126 659.61C54.1409 652.007 56.9529 644.755 61.3935 638.514C65.4573 653.027 63.9515 669.356 56.0778 682.055Z" fill="#E0E0E0"/>
<path d="M71.5898 700.542C65.0699 700.147 58.5774 701.674 52.9174 704.935C47.2575 708.195 42.6791 713.045 39.7501 718.884C39.3692 719.664 39.0063 720.698 39.5506 721.369C39.8234 721.638 40.1583 721.834 40.5254 721.942C40.8926 722.05 41.2806 722.065 41.6551 721.986C47.9323 721.587 53.4838 717.814 58.0738 713.514C62.6638 709.214 66.6733 704.243 71.735 700.524" fill="#E0E0E0"/>
<path d="M71.0996 699.562C67.7569 688.801 67.5492 677.31 70.5009 666.435C71.6802 662.171 73.6395 657.69 77.5764 655.694C77.7342 655.588 77.9124 655.515 78.0998 655.481C78.2871 655.446 78.4796 655.451 78.665 655.495C78.9834 655.664 79.2239 655.95 79.3362 656.293C80.667 659.27 81.2404 662.529 81.0053 665.782C80.7727 669.028 80.2751 672.25 79.5176 675.415C78.284 681.293 77.7034 687.607 74.3834 692.686C73.6255 693.909 72.9409 695.175 72.3333 696.478C71.7346 697.766 71.7346 698.292 71.1722 699.236" fill="#E0E0E0"/>
<path d="M112.192 705.658C110.811 699.611 110.766 693.335 112.06 687.269C113.354 681.203 115.956 675.492 119.685 670.535C120.211 669.827 120.919 669.083 121.808 669.156C123.15 669.283 123.495 671.079 123.44 672.421C122.884 684.331 118.986 695.843 112.192 705.64" fill="#E0E0E0"/>
<path d="M115.893 708.198C123.082 709.894 130.554 710.011 137.793 708.538C145.031 707.066 151.864 704.041 157.82 699.671C150.805 696.143 142.782 695.162 135.124 696.895C127.54 698.709 120.61 702.011 115.893 708.198Z" fill="#E0E0E0"/>
<path d="M119.014 700.488C126.906 687.643 142.018 679.261 157.112 678.481C155.298 684.613 150.345 689.366 144.667 692.251C138.846 694.862 132.692 696.657 126.379 697.585C123.948 698.056 120.61 698.583 119.123 700.488" fill="#E0E0E0"/>
<path d="M112.972 663.06C115.365 655.824 116.995 648.357 117.834 640.782C118.677 633.159 117.131 625.462 113.407 618.757C106.042 632.999 105.298 649.599 112.754 663.84" fill="#E0E0E0"/>
<path d="M137.754 650.578C146.372 634.94 163.934 622.439 181.695 620.68C174.837 637.752 156.151 650.941 137.754 650.578Z" fill="#E0E0E0"/>
<path d="M132.348 653.608C145.175 655.567 156.115 663.768 168.107 668.739C170.625 669.944 173.413 670.475 176.198 670.281C177.492 670.264 178.75 669.851 179.802 669.098C180.854 668.345 181.65 667.287 182.083 666.068C182.516 664.848 182.565 663.525 182.223 662.277C181.881 661.029 181.165 659.916 180.171 659.087C178.474 657.497 176.475 656.264 174.293 655.459C161.231 650.016 147.207 649.889 133.455 653.191" fill="#E0E0E0"/>
<path d="M124.91 662.607C127.812 663.441 128.81 664.947 131.114 666.906C138.985 673.594 148.301 678.363 158.328 680.84C159.362 681.094 160.722 681.202 161.249 680.277C161.775 679.352 161.122 678.463 160.541 677.737C156.199 672.628 150.558 668.786 144.213 666.616C137.954 664.276 132.529 661.464 125.055 662.08" fill="#E0E0E0"/>
<path d="M116.528 608.234C121.793 613.088 128.016 616.787 134.796 619.092C141.576 621.398 148.764 622.26 155.897 621.623C156.559 621.644 157.206 621.418 157.711 620.988C158.709 619.899 157.511 618.23 156.368 617.36C144.793 608.288 130.77 604.66 116.564 608.288" fill="#E0E0E0"/>
<path d="M126.47 604.588C133.438 599.463 141.52 596.058 150.055 594.652C158.59 593.246 167.337 593.878 175.581 596.496C169.153 602.448 160.91 606.065 152.177 606.765C143.547 607.558 134.844 606.821 126.47 604.588Z" fill="#E0E0E0"/>
<path d="M122.515 579.606C121.39 568.049 122.116 558.941 121.318 547.33C121.318 546.405 121.064 545.299 120.193 544.954C118.977 544.5 117.98 545.97 117.58 547.203C115.897 552.582 115.464 558.275 116.316 563.847C117.168 569.418 119.282 574.722 122.497 579.352" fill="#E0E0E0"/>
<path d="M121.68 580.876C129.257 576.016 135.789 569.694 140.893 562.28C144.666 557.11 147.859 550.923 147.007 544.573C144.345 544.644 141.731 545.294 139.347 546.478C136.962 547.662 134.865 549.353 133.201 551.431C129.906 555.614 127.509 560.431 126.161 565.582C124.637 570.662 123.567 575.887 121.753 580.876" fill="#E0E0E0"/>
<path d="M140.494 575.651C157.746 569.285 173.721 559.884 187.664 547.893C182.04 545.625 175.599 546.986 169.975 549.254C157.207 554.09 146.659 563.444 140.331 575.542" fill="#E0E0E0"/>
<path d="M126.978 587.207C135.646 588.437 144.441 588.48 153.121 587.334C161.593 585.919 169.612 582.545 177.522 579.225C178.214 579.018 178.808 578.566 179.191 577.955C179.311 577.587 179.318 577.192 179.211 576.82C179.104 576.448 178.889 576.117 178.593 575.868C177.98 575.388 177.267 575.053 176.506 574.889C167.889 572.494 158.6 573.619 150.128 576.467C142.058 579.231 134.299 582.83 126.978 587.207Z" fill="#E0E0E0"/>
<path d="M77.3951 608.633C71.4625 596.659 71.9524 582.69 76.9778 570.353C80.6062 575.796 81.0235 582.835 80.3704 589.384C79.7173 595.934 77.7216 602.646 77.5765 609.214" fill="#E0E0E0"/>
<path d="M53.6468 596.678C46.2232 596.579 38.8609 598.031 32.0315 600.943C25.202 603.855 19.0562 608.161 13.9878 613.586C21.4853 614.486 29.0791 613.081 35.7585 609.559C42.3711 606.048 48.6081 601.872 54.3725 597.095" fill="#E0E0E0"/>
<path d="M37.718 591.344C30.4611 590.763 23.5126 589.874 16.546 591.997C13.031 592.986 9.77071 594.722 6.9874 597.086C4.20409 599.45 1.96319 602.386 0.41748 605.694C7.25027 606.242 14.1048 604.945 20.2651 601.939C26.3889 598.938 32.2301 595.392 37.718 591.344Z" fill="#E0E0E0"/>
<path d="M61.303 591.598C54.7899 587.334 48.0954 582.98 40.512 581.202C32.9285 579.424 24.1839 580.749 18.8501 586.463C24.9822 590.092 32.4387 590.491 39.5686 590.491C46.6985 590.491 55.4068 590.4 62.1194 592.777" fill="#E0E0E0"/>
<path d="M61.3391 591.942C50.1997 581.057 45.9907 561.354 50.4537 546.405C59.2437 559.867 63.0909 575.961 61.3391 591.942Z" fill="#E0E0E0"/>
<path d="M91.9087 560.955C94.0132 556.057 95.5371 550.941 97.3514 545.97C99.069 540.926 101.708 536.244 105.134 532.164C108.606 528.026 113.564 525.42 118.941 524.907C117.223 532.442 113.956 539.538 109.345 545.741C104.735 551.945 98.8831 557.12 92.1627 560.937" fill="#E0E0E0"/>
<path d="M86.4662 567.414C83.001 562.624 78.9734 556.13 74.2564 552.555C69.5394 548.981 63.3711 546.823 57.6562 548.183C60.6365 553.405 64.7913 557.861 69.7918 561.199C74.7922 564.536 80.501 566.664 86.4662 567.414Z" fill="#E0E0E0"/>
<path d="M87.5364 561.354C85.067 555.642 83.2415 549.673 82.0938 543.557C80.9537 537.367 81.9383 530.974 84.8877 525.415C91.0016 536.971 92.9791 549.38 87.9174 561.445" fill="#E0E0E0"/>
<path d="M92.0361 525.397C95.5013 513.949 105.988 505.44 117.326 501.63C118.727 501.055 120.246 500.831 121.753 500.977C122.506 501.055 123.219 501.355 123.801 501.84C124.382 502.325 124.806 502.972 125.019 503.698C125.436 505.64 123.821 507.327 122.297 508.688C113.447 516.251 103.151 521.935 92.0361 525.397Z" fill="#E0E0E0"/>
<path d="M92.1629 516.09C92.5983 508.688 93.0518 501.195 95.4648 494.192C97.8777 487.189 102.504 480.64 109.235 477.574C110.378 485.03 107.094 492.45 103.121 498.873C99.1476 505.295 94.3581 511.355 91.9814 518.521" fill="#E0E0E0"/>
<path d="M91.909 521.169C89.0425 512.824 88.7522 502.211 83.7449 494.936C80.2435 489.856 74.6738 486.391 71.6441 481.002C69.8246 486.169 70.0783 491.839 72.3516 496.822C74.6262 501.751 77.7591 506.235 81.6042 510.066C85.2326 514.021 88.4619 516.997 91.909 521.169Z" fill="#E0E0E0"/>
<path d="M92.0358 767.088C91.8181 767.088 91.6185 711.391 91.6004 642.686C91.5822 573.981 91.7637 518.267 91.9814 518.267C92.1991 518.267 92.3986 573.945 92.4168 642.686C92.4349 711.427 92.2535 767.088 92.0358 767.088Z" fill="#E0E0E0"/>
<path d="M140.712 600.215C140.046 600.553 139.347 600.821 138.625 601.014L132.856 602.955C127.994 604.606 121.318 607.001 114.079 609.976C106.84 612.951 100.128 615.546 96.2814 618.884C94.7229 620.161 93.481 621.782 92.653 623.619C92.0906 624.925 91.9998 625.723 91.9273 625.723C91.8547 625.723 91.9273 625.506 91.9273 625.125C92.0194 624.575 92.159 624.035 92.3445 623.51C93.0711 621.567 94.2679 619.834 95.8279 618.466C98.1549 616.499 100.759 614.885 103.556 613.677C106.641 612.226 110.07 610.72 113.698 609.232C120.955 606.257 127.686 603.935 132.602 602.411C135.07 601.649 137.065 601.086 138.462 600.705C139.195 600.472 139.948 600.307 140.712 600.215Z" fill="#E0E0E0"/>
<path d="M156.677 561.028C156.506 561.26 156.305 561.467 156.078 561.645L154.264 563.332L147.587 569.391L125.381 589.166C116.709 596.895 109.216 604.261 104.028 609.812C101.415 612.588 99.3652 614.892 97.9682 616.489L96.3536 618.303C96.1849 618.531 95.9832 618.733 95.7549 618.902C95.8902 618.648 96.0546 618.41 96.2447 618.194C96.5713 617.741 97.0611 617.069 97.7324 616.253C99.0568 614.584 101.052 612.225 103.61 609.395C110.312 602.07 117.397 595.105 124.837 588.531C133.545 580.839 141.455 573.909 147.206 568.938C150.037 566.507 152.359 564.529 154.046 563.06L155.86 561.499C156.109 561.306 156.384 561.147 156.677 561.028Z" fill="#E0E0E0"/>
<path d="M116.056 597.022C115.821 596.913 117.635 592.741 119.449 587.443C121.263 582.146 122.116 577.701 122.352 577.737C122.164 581.149 121.441 584.51 120.211 587.697C119.432 589.958 118.529 592.175 117.508 594.337C117.143 595.292 116.655 596.194 116.056 597.022Z" fill="#E0E0E0"/>
<path d="M92.0904 630.731C91.5819 630.273 91.131 629.755 90.7478 629.188L87.319 624.798C84.4525 621.079 80.4793 615.945 76.0163 610.284C71.5533 604.624 67.4713 599.635 64.496 595.988L61.0671 591.707C60.608 591.198 60.2009 590.645 59.8516 590.056C60.3812 590.491 60.8673 590.977 61.3029 591.507C62.1919 592.469 63.4619 593.902 64.9314 595.68C68.0156 599.308 72.1883 604.207 76.6513 609.831C81.1143 615.455 85.0149 620.716 87.7725 624.453C89.1695 626.268 90.258 627.919 91.0018 629.007C91.4224 629.543 91.7871 630.121 92.0904 630.731Z" fill="#E0E0E0"/>
<path d="M81.4045 617.033C79.2535 614.653 77.7208 611.781 76.9415 608.669C76.0927 605.936 75.7485 603.071 75.9256 600.215H76.2884C76.2388 600.561 76.1217 600.894 75.9437 601.195C75.9437 601.195 75.9437 600.814 75.9437 600.161H76.3066C76.4761 602.944 76.9506 605.7 77.7216 608.379C78.7391 611.349 79.9699 614.241 81.4045 617.033Z" fill="#E0E0E0"/>
<path d="M67.6347 599.78C66.6696 599.055 65.6222 598.446 64.5142 597.966C61.706 597.119 58.7489 596.884 55.8422 597.276C52.8986 597.491 49.979 597.958 47.1158 598.673C45.9259 599.04 44.714 599.331 43.4873 599.544C44.5466 598.891 45.7045 598.413 46.9162 598.129C49.7886 597.24 52.7527 596.68 55.7515 596.46C58.7609 596.061 61.8222 596.39 64.6775 597.422C65.9067 597.841 66.9519 598.675 67.6347 599.78Z" fill="#E0E0E0"/>
<path d="M64.3688 595.498C64.3688 595.625 62.5545 594.772 59.5792 593.684C51.8259 591.045 43.529 590.421 35.4681 591.87C32.3839 592.414 30.5334 592.995 30.479 592.868C30.8691 592.617 31.2983 592.433 31.749 592.323C32.9355 591.907 34.1474 591.568 35.3774 591.307C39.4315 590.418 43.5936 590.125 47.7323 590.436C51.8637 590.759 55.927 591.676 59.7969 593.158C60.9655 593.606 62.1047 594.127 63.2077 594.718C63.6324 594.917 64.024 595.18 64.3688 595.498Z" fill="#E0E0E0"/>
<path d="M91.9088 577.737C90.4883 573.776 89.3248 569.728 88.4254 565.618C87.2534 561.575 86.3444 557.46 85.7041 553.299C87.126 557.261 88.2955 561.309 89.2056 565.418C90.3669 569.463 91.2698 573.578 91.9088 577.737Z" fill="#E0E0E0"/>
<path d="M92.1992 577.737C91.0839 575.23 89.7925 572.805 88.3349 570.48C86.7012 568.28 84.786 566.304 82.6382 564.602C83.448 564.809 84.1991 565.201 84.8334 565.745C86.4503 566.92 87.8553 568.362 88.988 570.008C90.7213 572.256 91.8291 574.923 92.1992 577.737Z" fill="#E0E0E0"/>
<path d="M92.0358 737.389C92.0358 737.389 91.7818 736.046 91.1468 733.761C90.2574 730.432 89.042 727.199 87.5183 724.109C82.1543 714.033 75.5206 704.686 67.7796 696.297C63.371 691.253 59.0894 686.5 55.461 681.946C52.1948 677.95 49.2467 673.704 46.6438 669.247C44.8932 666.236 43.406 663.079 42.199 659.813C41.7817 658.652 41.4914 657.744 41.3281 657.128C41.222 656.814 41.1431 656.493 41.0923 656.166C41.0923 656.166 41.564 657.436 42.4892 659.704C43.8074 662.898 45.3598 665.991 47.1337 668.956C49.792 673.343 52.7629 677.533 56.0234 681.493C59.6518 685.992 63.9697 690.709 68.3782 695.752C76.1757 704.193 82.7915 713.653 88.0445 723.873C89.5608 727.009 90.7347 730.3 91.5459 733.688C91.7608 734.609 91.9243 735.542 92.0358 736.482C92.0636 736.784 92.0636 737.087 92.0358 737.389Z" fill="#E0E0E0"/>
<path d="M136.031 687.715C135.285 688.184 134.516 688.614 133.727 689.004C131.636 690.172 129.635 691.494 127.74 692.959C124.932 695.131 122.305 697.528 119.884 700.125C117.127 703.028 114.296 706.402 111.394 710.03C105.606 717.287 100.182 723.746 96.8799 728.88C95.2289 731.42 94.0315 733.561 93.2514 735.067C92.8785 735.867 92.4543 736.643 91.9814 737.389C91.9814 737.389 91.9815 737.153 92.1992 736.736C92.4169 736.319 92.5983 735.702 92.9611 734.922C93.9907 732.741 95.1541 730.627 96.4444 728.59C100.851 721.974 105.63 715.614 110.759 709.541C113.661 705.912 116.546 702.538 119.358 699.617C121.832 697.03 124.521 694.657 127.395 692.523C129.355 691.056 131.444 689.769 133.636 688.677C134.224 688.375 134.83 688.109 135.45 687.879C135.825 687.734 136.019 687.679 136.031 687.715Z" fill="#E0E0E0"/>
<path d="M136.884 703.826C135.276 704.179 133.645 704.415 132.003 704.533C128.088 704.934 124.219 705.699 120.447 706.819C116.715 708.032 113.218 709.872 110.106 712.262C107.729 714.076 106.604 715.618 106.477 715.546C106.35 715.473 106.659 715.092 107.185 714.421C107.943 713.473 108.793 712.604 109.725 711.827C112.811 709.249 116.365 707.29 120.193 706.057C124.013 704.918 127.951 704.224 131.931 703.989C133.573 703.783 135.231 703.728 136.884 703.826Z" fill="#E0E0E0"/>
<path d="M107.91 713.75C107.656 713.605 109.852 710.248 111.539 705.731C113.226 701.213 113.516 697.186 113.788 697.24C113.943 698.104 113.943 698.989 113.788 699.853C113.541 701.954 113.066 704.022 112.373 706.021C111.627 707.995 110.679 709.885 109.543 711.663C109.121 712.446 108.569 713.152 107.91 713.75Z" fill="#E0E0E0"/>
<path d="M150.272 644.428C150.036 644.607 149.773 644.748 149.492 644.845L147.206 645.879C146.19 646.315 144.975 646.859 143.578 647.585C142.181 648.31 140.584 649.036 138.915 650.034L136.267 651.54C135.341 652.084 134.452 652.701 133.454 653.354C131.495 654.533 129.536 656.003 127.431 657.49C122.985 660.864 118.789 664.557 114.877 668.539C111.038 672.565 107.503 676.871 104.3 681.42C102.867 683.579 101.47 685.593 100.345 687.588C99.7824 688.568 99.1837 689.511 98.6758 690.455L97.3514 693.176C96.408 694.881 95.7367 696.514 95.0654 697.911C94.3942 699.308 93.8862 700.542 93.4871 701.54C93.0879 702.537 92.7795 703.245 92.5255 703.862C92.4259 704.14 92.2983 704.408 92.1445 704.66C92.1791 704.365 92.2587 704.078 92.3804 703.807L93.1968 701.431C93.5596 700.397 94.0132 699.127 94.6482 697.712C95.2832 696.297 95.9181 694.627 96.8434 692.904C97.2788 692.015 97.7505 691.09 98.2222 690.146C98.6939 689.203 99.2926 688.332 99.8731 687.243C100.98 685.212 102.359 683.18 103.774 681.003C110.142 671.691 118.036 663.521 127.123 656.837C129.245 655.349 131.241 653.898 133.219 652.737C134.216 652.138 135.142 651.503 136.067 650.923L138.77 649.435C140.476 648.473 142.108 647.766 143.505 647.095C144.686 646.505 145.897 645.979 147.134 645.516L149.492 644.609C149.746 644.523 150.007 644.462 150.272 644.428Z" fill="#E0E0E0"/>
<path d="M115.494 667.759C115.781 666.641 116.416 665.644 117.308 664.911C119.454 663.043 122.192 661.996 125.036 661.953C127.817 661.94 130.573 662.477 133.146 663.532C134.233 663.882 135.265 664.383 136.212 665.019C135.102 664.811 134.014 664.495 132.965 664.076C130.42 663.196 127.747 662.749 125.055 662.752C122.386 662.809 119.805 663.718 117.689 665.346C116.894 666.091 116.16 666.898 115.494 667.759Z" fill="#E0E0E0"/>
<path d="M110.251 673.129C111.284 670.855 112.021 668.459 112.446 665.999C112.593 663.509 112.429 661.01 111.956 658.561C112.423 659.172 112.734 659.888 112.863 660.647C113.802 664.234 113.355 668.042 111.612 671.315C110.922 672.548 110.324 673.183 110.251 673.129Z" fill="#E0E0E0"/>
<path d="M53.5562 745.372C54.7535 766.671 61.1759 788.314 71.0453 810.212H113.952C123.368 788.532 129.336 766.925 130.389 745.372H53.5562Z" fill="#E0E0E0"/>
<path d="M123.44 779.824C123.44 780.041 109.307 780.223 91.8907 780.223C74.4741 780.223 60.3413 780.041 60.3413 779.824C60.3413 779.606 74.456 779.388 91.9089 779.388C109.362 779.388 123.44 779.606 123.44 779.824Z" fill="#FAFAFA"/>
<path d="M122.479 787.534C122.479 787.752 109.235 787.933 92.9069 787.933C76.5789 787.933 63.3169 787.752 63.3169 787.534C63.3169 787.316 76.5608 787.135 92.9069 787.135C109.253 787.135 122.479 787.316 122.479 787.534Z" fill="#FAFAFA"/>
<path d="M71.7346 759.432C72.2668 766.007 72.2668 772.614 71.7346 779.189C71.2024 772.614 71.2024 766.007 71.7346 759.432Z" fill="#FAFAFA"/>
<path d="M94.7209 759.432C95.2531 766.243 95.2531 773.085 94.7209 779.896C94.1887 773.085 94.1887 766.243 94.7209 759.432Z" fill="#FAFAFA"/>
<path d="M116.31 759.178C116.842 766.128 116.842 773.109 116.31 780.059C115.778 773.109 115.778 766.128 116.31 759.178Z" fill="#FAFAFA"/>
<path d="M129.028 759.432C129.028 759.65 112.464 759.831 92.0357 759.831C71.6075 759.831 55.0073 759.65 55.0073 759.432C55.0073 759.214 71.5894 759.033 92.0357 759.033C112.482 759.033 129.028 759.123 129.028 759.432Z" fill="#FAFAFA"/>
<path d="M794.722 560.828C798.649 559.094 801.98 556.246 804.305 552.638C806.63 549.03 807.846 544.819 807.803 540.527C807.803 528.408 798.732 518.539 787.32 518.503C775.909 518.466 766.692 528.227 766.656 540.273C766.574 544.599 767.774 548.852 770.105 552.497C772.436 556.142 775.794 559.016 779.755 560.756C748.097 565.527 749.53 599.925 749.53 599.925L824.403 600.27C824.403 600.27 826.108 565.564 794.722 560.828Z" fill="#EBEBEB"/>
<path d="M458.147 60.6098C460.904 60.0682 463.446 58.7376 465.462 56.7795C467.478 54.8214 468.882 52.3201 469.504 49.5794C470.02 47.8205 470.172 45.975 469.952 44.1552C469.732 42.3355 469.143 40.5798 468.222 38.995C467.301 37.4103 466.066 36.0298 464.594 34.9377C463.122 33.8456 461.443 33.0648 459.659 32.6429C457.875 32.221 456.024 32.1669 454.219 32.4838C452.413 32.8007 450.691 33.482 449.158 34.4861C447.624 35.4903 446.311 36.7963 445.299 38.3245C444.287 39.8526 443.596 41.571 443.27 43.3747C442.572 46.1253 442.706 49.0213 443.656 51.6955C444.605 54.3698 446.327 56.7019 448.604 58.3965C427.686 56.7455 423.531 78.9154 423.531 78.9154L471.245 90.218C471.245 90.218 477.486 68.2115 458.147 60.6098Z" fill="#EBEBEB"/>
<path d="M796.772 245.298C799.06 243.867 800.878 241.796 802 239.342C803.122 236.888 803.5 234.159 803.086 231.492C802.949 229.727 802.452 228.008 801.626 226.442C800.799 224.877 799.66 223.497 798.28 222.388C796.899 221.28 795.306 220.466 793.598 219.998C791.891 219.529 790.106 219.416 788.353 219.664C786.599 219.913 784.916 220.518 783.406 221.443C781.896 222.367 780.592 223.591 779.573 225.04C778.555 226.488 777.845 228.13 777.486 229.864C777.127 231.598 777.127 233.387 777.487 235.12C777.821 237.82 778.95 240.36 780.729 242.417C782.509 244.475 784.86 245.957 787.483 246.677C768.234 252.501 772.207 273.763 772.207 273.763L818.797 267.25C818.797 267.25 816.71 245.425 796.772 245.298Z" fill="#F5F5F5"/>
<path d="M49.2385 251.884L24.0752 231.873L31.0418 223.092L47.9323 236.499L72.5695 208.941L80.933 216.416L49.2385 251.884Z" fill="#F5F5F5"/>
<path d="M811.54 810.847C811.54 811.119 629.845 811.318 405.788 811.318C181.731 811.318 0 811.119 0 810.847C0 810.575 181.64 810.375 405.788 810.375C629.936 810.375 811.54 810.593 811.54 810.847Z" fill="#263238"/>
<path d="M83.5632 280.857L27.9208 308.778C25.9022 309.657 24.1855 311.109 22.9829 312.953C21.7802 314.797 21.1443 316.954 21.1538 319.155V345.189C21.0899 368.871 27.9853 392.049 40.9833 411.844C51.0159 427.12 64.3142 446.641 86.4296 457.799H96.4079C121.045 450.288 139.423 430.277 150.653 413.15C163.657 393.357 170.558 370.179 170.501 346.496V319.155C170.498 316.944 169.847 314.783 168.628 312.938C167.409 311.094 165.676 309.647 163.643 308.778L100.163 281.764C97.3513 280.567 86.4659 279.66 83.5632 280.857Z" fill="#0B8FAC"/>
<path opacity="0.3" d="M83.5632 280.857L27.9208 308.778C25.9022 309.657 24.1855 311.109 22.9829 312.953C21.7802 314.797 21.1443 316.954 21.1538 319.155V345.189C21.0899 368.871 27.9853 392.049 40.9833 411.844C51.0159 427.12 64.3142 446.641 86.4296 457.799H96.4079C121.045 450.288 139.423 430.277 150.653 413.15C163.657 393.357 170.558 370.179 170.501 346.496V319.155C170.498 316.944 169.847 314.783 168.628 312.938C167.409 311.094 165.676 309.647 163.643 308.778L100.163 281.764C97.3513 280.567 86.4659 279.66 83.5632 280.857Z" fill="black"/>
<path d="M81.3319 281.764L17.9247 308.778C15.8919 309.647 14.1588 311.094 12.9399 312.938C11.7209 314.783 11.0697 316.944 11.0669 319.155V345.189C11.0683 369.3 18.2208 392.868 31.6195 412.913C45.0182 432.958 64.0611 448.578 86.3391 457.798C110.958 450.288 129.336 430.277 140.585 413.15C153.588 393.357 160.49 370.179 160.432 346.496V319.155C160.431 316.946 159.782 314.786 158.567 312.942C157.351 311.098 155.622 309.65 153.593 308.778L90.0946 281.764C88.7073 281.182 87.2178 280.882 85.7132 280.882C84.2087 280.882 82.7192 281.182 81.3319 281.764Z" fill="#0B8FAC"/>
<path opacity="0.3" d="M100.796 399.847C122.197 391.546 132.817 367.467 124.516 346.065C116.215 324.664 92.136 314.044 70.7344 322.345C49.3328 330.646 38.7128 354.725 47.0139 376.127C55.3151 397.528 79.3939 408.148 100.796 399.847Z" fill="black"/>
<path d="M85.7406 363.405C95.2693 363.405 102.994 355.68 102.994 346.151C102.994 336.623 95.2693 328.898 85.7406 328.898C76.2119 328.898 68.4873 336.623 68.4873 346.151C68.4873 355.68 76.2119 363.405 85.7406 363.405Z" fill="white"/>
<path d="M54.2456 388.187C57.0204 382.381 61.3994 377.492 66.8649 374.097C72.3304 370.702 78.6539 368.943 85.0874 369.028C91.6845 369.029 98.1593 370.809 103.83 374.181C109.5 377.553 114.156 382.391 117.308 388.187C117.308 388.187 107.13 403.245 84.652 402.7C78.8265 402.677 73.0784 401.363 67.821 398.854C62.5636 396.344 57.9274 392.701 54.2456 388.187Z" fill="white"/>
<path d="M127.304 361.1C127.283 360.877 127.283 360.652 127.304 360.429C127.304 359.939 127.304 359.286 127.141 358.47C127.141 358.034 127.141 357.544 127.141 357.018C127.141 356.492 126.959 355.911 126.869 355.204C126.68 353.764 126.389 352.339 125.998 350.94C125.012 347.066 123.452 343.36 121.372 339.946C118.643 335.415 115.071 331.449 110.849 328.263C105.749 324.384 99.8074 321.761 93.5051 320.607C86.2697 319.275 78.8098 319.901 71.8977 322.421C70.0272 323.07 68.2079 323.859 66.455 324.779C64.7023 325.74 63.0172 326.819 61.4115 328.009C59.7783 329.237 58.2212 330.564 56.7489 331.982C55.3057 333.478 53.9604 335.066 52.7213 336.735C50.1815 340.175 48.2036 343.996 46.8614 348.056C44.0309 356.472 44.0309 365.583 46.8614 373.999C48.1956 378.062 50.1741 381.885 52.7213 385.32C53.9603 386.995 55.3056 388.589 56.7489 390.091C58.2167 391.508 59.7741 392.829 61.4115 394.047C64.5612 396.449 68.0693 398.34 71.807 399.652C78.719 402.172 86.179 402.799 93.4144 401.467C99.1607 400.385 104.614 398.101 109.416 394.765C114.218 391.429 118.261 387.116 121.281 382.109C123.338 378.718 124.874 375.036 125.835 371.187C126.224 369.782 126.515 368.351 126.705 366.906C126.705 366.289 126.923 365.708 126.978 365.091C127.032 364.475 126.978 364.075 126.978 363.64L127.141 361.663C127.122 361.439 127.122 361.215 127.141 360.991C127.16 361.215 127.16 361.439 127.141 361.663C127.141 362.171 127.141 362.824 127.141 363.658C127.141 364.094 127.141 364.583 127.141 365.11C127.141 365.636 126.996 366.234 126.905 366.924C126.76 368.389 126.493 369.839 126.107 371.26C125.186 375.19 123.662 378.954 121.589 382.417C116.659 390.834 108.936 397.258 99.7621 400.572C90.588 403.886 80.5427 403.882 71.3716 400.56C69.5041 399.888 67.6855 399.088 65.9289 398.165C64.143 397.16 62.4331 396.026 60.8128 394.772C59.1253 393.535 57.525 392.183 56.0232 390.726C54.5791 389.218 53.2337 387.618 51.9956 385.937C49.384 382.424 47.3506 378.517 45.9724 374.362C44.5946 370.074 43.8669 365.604 43.8135 361.1C43.8639 356.595 44.598 352.123 45.9905 347.838C47.355 343.681 49.3829 339.773 51.9956 336.263C53.2711 334.558 54.6527 332.934 56.1321 331.401C57.6284 329.945 59.2226 328.594 60.9035 327.356C62.5121 326.128 64.2034 325.013 65.9652 324.017C67.7215 323.088 69.54 322.282 71.4079 321.604C78.4629 319.048 86.0726 318.422 93.4507 319.79C99.3032 320.915 104.848 323.278 109.713 326.72C114.578 330.161 118.652 334.603 121.662 339.747C123.735 343.217 125.259 346.986 126.179 350.922C126.565 352.337 126.832 353.781 126.978 355.24C126.978 355.875 127.177 356.456 127.213 357.054V358.524C127.213 359.358 127.213 360.012 127.213 360.501C127.26 360.698 127.291 360.898 127.304 361.1Z" fill="#263238"/>
<path d="M160.214 339.438C160.299 339.838 160.342 340.246 160.341 340.654C160.341 341.525 160.341 342.668 160.487 344.101C160.632 345.534 160.632 347.421 160.487 349.544C160.487 350.614 160.487 351.739 160.487 352.954C160.487 354.17 160.487 355.44 160.251 356.764C159.997 359.431 159.815 362.37 159.253 365.491C159.017 367.051 158.818 368.666 158.491 370.317C158.164 371.968 157.765 373.655 157.402 375.396C155.658 382.896 153.229 390.22 150.146 397.276C146.959 404.296 143.153 411.017 138.77 417.359C136.666 420.208 134.725 422.965 132.62 425.342C131.604 426.539 130.661 427.755 129.663 428.825L126.778 431.873C124.964 433.887 123.15 435.502 121.59 436.935C120.284 438.219 118.909 439.43 117.471 440.563L114.786 442.741C114.492 443.005 114.169 443.236 113.825 443.43C114.083 443.126 114.368 442.847 114.677 442.595L117.235 440.291C118.378 439.312 119.739 438.096 121.227 436.663C122.714 435.23 124.529 433.542 126.288 431.529L129.119 428.444C130.098 427.374 130.933 426.159 132.021 424.961C134.071 422.584 135.976 419.827 138.063 416.96C142.369 410.644 146.12 403.967 149.275 397.004C152.341 389.979 154.769 382.693 156.532 375.233L157.656 370.19C157.983 368.557 158.201 366.942 158.473 365.4C159.053 362.316 159.271 359.395 159.561 356.746C159.725 355.422 159.833 354.152 159.87 352.954L160.033 349.562C160.196 347.439 160.16 345.607 160.16 344.119C160.16 342.632 160.16 341.561 160.16 340.672C160.147 340.26 160.165 339.848 160.214 339.438Z" fill="#263238"/>
<path d="M601.362 810.847H172.37C169.56 810.8 166.786 810.199 164.208 809.079C161.629 807.959 159.297 806.342 157.344 804.32C155.391 802.298 153.856 799.911 152.827 797.295C151.797 794.68 151.293 791.887 151.343 789.076V133.379C151.293 130.568 151.797 127.775 152.827 125.159C153.856 122.544 155.391 120.157 157.344 118.135C159.297 116.113 161.629 114.496 164.208 113.376C166.786 112.256 169.56 111.655 172.37 111.608H601.362C604.172 111.655 606.945 112.256 609.522 113.376C612.099 114.496 614.431 116.114 616.382 118.136C618.333 120.158 619.867 122.545 620.894 125.161C621.922 127.776 622.424 130.569 622.371 133.379V789.113C622.419 791.919 621.914 794.708 620.884 797.319C619.854 799.931 618.32 802.313 616.369 804.332C614.418 806.35 612.089 807.964 609.514 809.082C606.939 810.2 604.169 810.8 601.362 810.847Z" fill="#263238"/>
<path d="M395.085 779.044C395.153 783.005 394.041 786.896 391.89 790.223C389.74 793.55 386.647 796.161 383.007 797.725C379.367 799.288 375.344 799.733 371.451 799.002C367.557 798.272 363.969 796.399 361.143 793.622C358.318 790.845 356.383 787.29 355.584 783.41C354.786 779.53 355.16 775.5 356.66 771.833C358.16 768.166 360.717 765.029 364.006 762.821C367.295 760.612 371.167 759.432 375.128 759.432C380.375 759.388 385.424 761.43 389.166 765.107C392.908 768.784 395.037 773.797 395.085 779.044Z" fill="#455A64"/>
<path d="M435.124 148.582H338.97C338.075 148.568 337.19 148.377 336.368 148.021C335.546 147.665 334.802 147.151 334.178 146.507C333.555 145.864 333.065 145.104 332.735 144.271C332.406 143.437 332.243 142.547 332.258 141.652C332.229 139.841 332.919 138.092 334.177 136.789C335.436 135.487 337.159 134.737 338.97 134.703H435.124C436.935 134.737 438.659 135.487 439.917 136.789C441.176 138.092 441.866 139.841 441.837 141.652C441.851 142.547 441.689 143.437 441.36 144.271C441.03 145.104 440.54 145.864 439.916 146.507C439.293 147.151 438.549 147.665 437.727 148.021C436.905 148.377 436.02 148.568 435.124 148.582Z" fill="#455A64"/>
<path d="M607.131 161.517H165.803V745.444H607.131V161.517Z" fill="white"/>
<path d="M607.131 161.517H588.3V745.444H607.131V161.517Z" fill="#F5F5F5"/>
<path d="M597.697 371.314C596.142 371.309 594.651 370.688 593.553 369.586C592.454 368.484 591.837 366.992 591.837 365.436V236.281C591.837 234.726 592.454 233.233 593.553 232.131C594.651 231.03 596.142 230.408 597.697 230.403C599.256 230.403 600.751 231.023 601.854 232.125C602.956 233.227 603.575 234.722 603.575 236.281V365.436C603.575 366.995 602.956 368.49 601.854 369.593C600.751 370.695 599.256 371.314 597.697 371.314Z" fill="#E0E0E0"/>
<path d="M549.566 294.409H224.167C221.684 294.409 219.303 293.423 217.547 291.667C215.791 289.912 214.805 287.531 214.805 285.048C214.805 282.565 215.791 280.184 217.547 278.428C219.303 276.673 221.684 275.687 224.167 275.687H549.566C552.049 275.687 554.43 276.673 556.186 278.428C557.941 280.184 558.928 282.565 558.928 285.048C558.928 287.531 557.941 289.912 556.186 291.667C554.43 293.423 552.049 294.409 549.566 294.409Z" fill="#E0E0E0"/>
<path d="M499.511 226.049H294.812C292.329 226.049 289.948 225.063 288.193 223.308C286.437 221.552 285.451 219.171 285.451 216.688C285.451 214.205 286.437 211.824 288.193 210.069C289.948 208.313 292.329 207.327 294.812 207.327H499.511C501.994 207.327 504.375 208.313 506.131 210.069C507.886 211.824 508.873 214.205 508.873 216.688C508.873 219.171 507.886 221.552 506.131 223.308C504.375 225.063 501.994 226.049 499.511 226.049Z" fill="#0B8FAC"/>
<path d="M503.358 332.091H270.375C267.892 332.091 265.511 331.105 263.755 329.349C261.999 327.593 261.013 325.212 261.013 322.73C261.013 320.247 261.999 317.866 263.755 316.11C265.511 314.354 267.892 313.368 270.375 313.368H503.358C504.587 313.368 505.804 313.61 506.94 314.081C508.076 314.551 509.108 315.241 509.977 316.11C510.846 316.979 511.536 318.011 512.006 319.147C512.477 320.283 512.719 321.5 512.719 322.73C512.719 323.959 512.477 325.176 512.006 326.312C511.536 327.448 510.846 328.48 509.977 329.349C509.108 330.218 508.076 330.908 506.94 331.378C505.804 331.849 504.587 332.091 503.358 332.091Z" fill="#E0E0E0"/>
<path d="M398.169 496.369H218.905C216.422 496.369 214.041 495.383 212.285 493.627C210.53 491.871 209.543 489.49 209.543 487.007C209.543 485.778 209.786 484.561 210.256 483.425C210.727 482.289 211.416 481.257 212.285 480.388C213.155 479.519 214.187 478.829 215.322 478.359C216.458 477.888 217.676 477.646 218.905 477.646H398.169C399.398 477.646 400.615 477.888 401.751 478.359C402.887 478.829 403.919 479.519 404.788 480.388C405.657 481.257 406.347 482.289 406.817 483.425C407.288 484.561 407.53 485.778 407.53 487.007C407.53 489.49 406.544 491.871 404.788 493.627C403.033 495.383 400.651 496.369 398.169 496.369Z" fill="#E0E0E0"/>
<path d="M544.305 457.128H218.905C216.422 457.128 214.041 456.141 212.285 454.386C210.53 452.63 209.543 450.249 209.543 447.766C209.543 446.538 209.786 445.321 210.256 444.186C210.727 443.052 211.417 442.021 212.286 441.153C213.156 440.285 214.188 439.597 215.324 439.129C216.459 438.66 217.676 438.42 218.905 438.423H544.305C545.533 438.42 546.75 438.66 547.886 439.129C549.021 439.597 550.053 440.285 550.923 441.153C551.792 442.021 552.482 443.052 552.953 444.186C553.424 445.321 553.666 446.538 553.666 447.766C553.666 448.995 553.424 450.213 552.953 451.349C552.483 452.484 551.793 453.516 550.924 454.386C550.055 455.255 549.023 455.944 547.887 456.415C546.751 456.885 545.534 457.128 544.305 457.128Z" fill="#E0E0E0"/>
<path d="M544.305 564.675H259.489C254.319 564.675 250.128 568.866 250.128 574.036C250.128 579.206 254.319 583.398 259.489 583.398H544.305C549.475 583.398 553.666 579.206 553.666 574.036C553.666 568.866 549.475 564.675 544.305 564.675Z" fill="#E0E0E0"/>
<path d="M544.305 623.365H218.905C216.422 623.365 214.041 622.378 212.285 620.623C210.53 618.867 209.543 616.486 209.543 614.003C209.553 611.527 210.544 609.155 212.298 607.407C214.053 605.659 216.428 604.678 218.905 604.678H544.305C545.534 604.678 546.751 604.92 547.887 605.391C549.023 605.861 550.055 606.551 550.924 607.42C551.793 608.289 552.483 609.321 552.953 610.457C553.424 611.593 553.666 612.81 553.666 614.04C553.656 616.516 552.666 618.888 550.911 620.636C549.157 622.383 546.781 623.365 544.305 623.365Z" fill="#E0E0E0"/>
<path d="M544.305 664.04H218.905C216.422 664.04 214.041 663.053 212.285 661.298C210.53 659.542 209.543 657.161 209.543 654.678C209.543 652.196 210.53 649.814 212.285 648.059C214.041 646.303 216.422 645.317 218.905 645.317H544.305C545.534 645.317 546.751 645.559 547.887 646.029C549.023 646.5 550.055 647.189 550.924 648.059C551.793 648.928 552.483 649.96 552.953 651.096C553.424 652.232 553.666 653.449 553.666 654.678C553.666 657.161 552.68 659.542 550.924 661.298C549.168 663.053 546.787 664.04 544.305 664.04Z" fill="#E0E0E0"/>
<path d="M233.546 574.036C233.546 575.96 232.975 577.841 231.906 579.441C230.836 581.04 229.316 582.287 227.539 583.022C225.761 583.757 223.804 583.949 221.918 583.572C220.031 583.196 218.298 582.268 216.939 580.906C215.58 579.544 214.655 577.81 214.282 575.922C213.909 574.035 214.104 572.079 214.843 570.302C215.581 568.526 216.831 567.008 218.432 565.942C220.034 564.876 221.916 564.308 223.84 564.312C226.415 564.317 228.884 565.343 230.704 567.167C232.524 568.99 233.546 571.46 233.546 574.036Z" fill="#0B8FAC"/>
<path d="M544.305 420.57H259.471C256.988 420.57 254.607 419.584 252.852 417.829C251.096 416.073 250.11 413.692 250.11 411.209C250.11 408.726 251.096 406.345 252.852 404.59C254.607 402.834 256.988 401.848 259.471 401.848H544.305C545.534 401.848 546.752 402.09 547.887 402.56C549.023 403.031 550.055 403.72 550.924 404.59C551.794 405.459 552.483 406.491 552.954 407.627C553.424 408.762 553.666 409.98 553.666 411.209C553.666 412.438 553.424 413.656 552.954 414.792C552.483 415.927 551.794 416.959 550.924 417.829C550.055 418.698 549.023 419.387 547.887 419.858C546.752 420.328 545.534 420.57 544.305 420.57Z" fill="#E0E0E0"/>
<path d="M223.84 420.933C229.211 420.933 233.564 416.58 233.564 411.209C233.564 405.839 229.211 401.485 223.84 401.485C218.469 401.485 214.116 405.839 214.116 411.209C214.116 416.58 218.469 420.933 223.84 420.933Z" fill="#0B8FAC"/>
<path d="M535.215 723.565H462.193C458.238 723.565 454.444 721.993 451.648 719.197C448.851 716.4 447.28 712.607 447.28 708.652C447.28 704.697 448.851 700.903 451.648 698.107C454.444 695.31 458.238 693.739 462.193 693.739H535.215C539.171 693.739 542.964 695.31 545.76 698.107C548.557 700.903 550.128 704.697 550.128 708.652C550.128 712.607 548.557 716.4 545.76 719.197C542.964 721.993 539.171 723.565 535.215 723.565Z" fill="#0B8FAC"/>
<path d="M159.035 19.8625L83.3459 57.8343C80.5762 59.0118 78.2138 60.9776 76.5526 63.4872C74.8913 65.9968 74.0046 68.9394 74.0026 71.9489V107.363C73.9131 139.593 83.3009 171.138 100.998 198.074C114.641 218.792 132.711 245.353 162.809 260.52H176.379C209.87 250.306 234.87 223.074 250.164 199.797C267.861 172.861 277.249 141.316 277.16 109.086V71.9489C277.164 68.9475 276.288 66.0107 274.64 63.502C272.992 60.9933 270.645 59.0228 267.889 57.8343L181.604 21.0418C177.758 19.4634 162.882 18.2297 159.035 19.8625Z" fill="#0B8FAC"/>
<path opacity="0.3" d="M159.035 19.8625L83.3459 57.8343C80.5762 59.0118 78.2138 60.9776 76.5526 63.4872C74.8913 65.9968 74.0046 68.9394 74.0026 71.9489V107.363C73.9131 139.593 83.3009 171.138 100.998 198.074C114.641 218.792 132.711 245.353 162.809 260.52H176.379C209.87 250.306 234.87 223.074 250.164 199.797C267.861 172.861 277.249 141.316 277.16 109.086V71.9489C277.164 68.9475 276.288 66.0107 274.64 63.502C272.992 60.9933 270.645 59.0228 267.889 57.8343L181.604 21.0418C177.758 19.4634 162.882 18.2297 159.035 19.8625Z" fill="black"/>
<path d="M155.987 21.0417L69.7573 57.8342C66.9896 59.0125 64.6297 60.979 62.9715 63.4888C61.3134 65.9986 60.4303 68.9408 60.4321 71.9489V107.363C60.4365 140.154 70.1655 172.208 88.3886 199.47C106.612 226.732 132.51 247.978 162.809 260.52C196.3 250.305 221.3 223.074 236.575 199.797C254.281 172.865 263.669 141.317 263.571 109.086V71.9489C263.573 68.9408 262.69 65.9986 261.032 63.4888C259.374 60.979 257.014 59.0125 254.246 57.8342L168.106 21.0417C166.192 20.2212 164.13 19.7981 162.047 19.7981C159.964 19.7981 157.902 20.2212 155.987 21.0417Z" fill="#0B8FAC"/>
<path d="M263.299 99.5435C263.322 99.6816 263.322 99.8225 263.299 99.9607C263.299 100.287 263.299 100.686 263.299 101.176C263.299 102.337 263.39 103.898 263.462 105.875C263.535 107.853 263.644 110.393 263.462 113.295C263.462 114.747 263.462 116.289 263.317 117.922C263.317 118.756 263.317 119.591 263.317 120.461C263.317 121.332 263.154 122.276 263.063 123.128C262.7 126.757 262.465 130.748 261.703 134.975C261.358 137.08 261.086 139.293 260.65 141.525C260.215 143.756 259.671 146.06 259.163 148.419C256.767 158.616 253.432 168.57 249.203 178.154C244.88 187.694 239.72 196.831 233.782 205.458C230.915 209.34 228.339 213.096 225.436 216.343C224.039 217.976 222.769 219.627 221.409 221.078L217.49 225.251C215.059 227.973 212.555 230.131 210.469 232.145C209.399 233.125 208.437 234.068 207.512 234.885L204.972 236.935L201.343 239.91L200.382 240.672C200.164 240.835 200.037 240.908 200.037 240.89C200.037 240.872 200.037 240.781 200.309 240.581L201.216 239.765L204.718 236.663L207.276 234.431C208.201 233.615 209.09 232.617 210.179 231.637C212.229 229.605 214.678 227.428 217.073 224.689L220.937 220.48C222.28 219.028 223.531 217.377 224.892 215.745C227.704 212.515 230.335 208.76 233.129 204.859C239.009 196.25 244.126 187.145 248.423 177.646C252.615 168.111 255.949 158.22 258.383 148.092C258.909 145.752 259.399 143.466 259.907 141.253C260.415 139.039 260.632 136.826 260.995 134.721C261.793 130.512 262.065 126.539 262.465 122.929C262.573 122.04 262.664 121.115 262.755 120.298C262.846 119.482 262.755 118.593 262.864 117.776C262.936 116.144 263.009 114.602 263.081 113.15C263.281 110.266 263.227 107.707 263.227 105.748V101.194V99.9607C263.223 99.8182 263.248 99.6765 263.299 99.5435Z" fill="#263238"/>
<path d="M196.155 147.131H186.956V97.076C186.794 91.5181 184.473 86.2421 180.484 82.3681C176.496 78.4941 171.154 76.3271 165.594 76.3271C160.034 76.3271 154.692 78.4941 150.704 82.3681C146.715 86.2421 144.393 91.5181 144.231 97.076V147.131H135.033V97.076C135.228 89.0998 138.533 81.5156 144.243 75.9429C149.953 70.3703 157.615 67.251 165.594 67.251C173.572 67.251 181.235 70.3703 186.945 75.9429C192.655 81.5156 195.96 89.0998 196.155 97.076V147.131Z" fill="#F5F5F5"/>
<path d="M196.245 113.168H134.961C129.139 113.168 124.42 117.887 124.42 123.709V167.177C124.42 172.999 129.139 177.718 134.961 177.718H196.245C202.067 177.718 206.786 172.999 206.786 167.177V123.709C206.786 117.887 202.067 113.168 196.245 113.168Z" fill="white"/>
<path d="M196.245 177.718C197.167 177.621 198.083 177.463 198.984 177.247C201.182 176.612 203.112 175.276 204.478 173.441C205.844 171.606 206.572 169.374 206.55 167.087C206.55 164.964 206.55 162.66 206.55 160.175C206.55 155.222 206.55 149.58 206.55 143.339C206.55 137.098 206.55 130.294 206.55 122.965C206.413 121.138 205.785 119.383 204.731 117.884C203.676 116.386 202.236 115.202 200.563 114.456C198.778 113.721 196.844 113.423 194.921 113.585H188.825L134.96 113.567C132.696 113.566 130.498 114.329 128.72 115.731C126.943 117.133 125.69 119.094 125.164 121.296C124.928 122.392 124.831 123.514 124.873 124.634V134.848C124.873 143.919 124.873 152.482 124.873 160.737C125.037 164.837 124.184 169.064 126.288 172.294C127.22 173.88 128.564 175.185 130.177 176.069C131.79 176.954 133.612 177.386 135.45 177.319H155.86L185.414 177.482H193.433H195.519C195.761 177.46 196.004 177.46 196.245 177.482C196.004 177.51 195.76 177.51 195.519 177.482H193.433H185.414L155.86 177.628H135.45C133.951 177.695 132.454 177.454 131.052 176.92C129.65 176.386 128.372 175.57 127.297 174.523C126.223 173.475 125.374 172.219 124.804 170.831C124.235 169.442 123.956 167.952 123.984 166.452V160.737C123.984 152.482 123.984 143.829 123.984 134.848V124.707C123.93 123.489 124.033 122.269 124.293 121.078C124.882 118.7 126.257 116.591 128.193 115.091C130.146 113.547 132.561 112.703 135.051 112.696H188.716H194.812C196.857 112.54 198.91 112.876 200.799 113.676C202.603 114.482 204.155 115.764 205.286 117.384C206.417 119.005 207.086 120.903 207.221 122.874C207.221 130.276 207.221 137.062 207.221 143.302C207.221 149.543 207.221 155.186 207.221 160.138C207.221 162.624 207.221 164.928 207.221 167.051C207.223 169.037 206.67 170.985 205.624 172.675C204.202 175.021 201.915 176.715 199.257 177.392C198.282 177.688 197.26 177.798 196.245 177.718Z" fill="#263238"/>
<path d="M171.916 147.112C172.747 146.284 173.405 145.3 173.853 144.216C174.302 143.133 174.531 141.971 174.529 140.799C174.539 139.108 174.078 137.449 173.195 136.007C172.313 134.565 171.046 133.399 169.536 132.639C168.026 131.879 166.334 131.556 164.651 131.706C162.967 131.857 161.359 132.475 160.008 133.49C158.657 134.506 157.616 135.878 157.004 137.454C156.391 139.029 156.231 140.744 156.541 142.406C156.851 144.067 157.619 145.609 158.759 146.857C159.898 148.106 161.364 149.011 162.99 149.471L161.049 158.07H169.667L167.852 149.471C169.358 149.041 170.727 148.228 171.826 147.112" fill="#0B8FAC"/>
<path d="M733.819 211.844V285.357C733.982 298.056 735.851 318.013 715.677 317.359C698.278 315.545 693.652 298.981 693.525 287.116C693.525 281.492 693.398 276.793 693.343 276.231C693.343 276.231 674.294 274.671 672.679 255.839C671.899 246.768 671.827 227.882 671.954 210.81C672.031 201.968 675.433 193.48 681.484 187.032C687.535 180.585 695.791 176.651 704.61 176.013L706.424 175.886C726.145 175.596 734.145 192.16 733.819 211.844Z" fill="#FFBF9D"/>
<path d="M693.398 276.231C702.101 275.562 710.43 272.414 717.4 267.16C717.4 267.16 712.429 281.365 693.507 281.038L693.398 276.231Z" fill="#FF9A6C"/>
<path d="M704.193 218.538C704.574 218.919 706.751 217.159 709.889 217.087C713.028 217.014 715.332 218.538 715.731 218.139C716.13 217.74 715.513 217.25 714.479 216.543C713.098 215.615 711.461 215.145 709.799 215.2C708.149 215.252 706.56 215.831 705.263 216.851C704.32 217.649 704.011 218.357 704.193 218.538Z" fill="#263238"/>
<path d="M704.138 227.446C704.176 228.114 704.475 228.739 704.971 229.188C705.467 229.636 706.119 229.871 706.787 229.841C707.112 229.843 707.435 229.781 707.736 229.656C708.036 229.532 708.309 229.348 708.537 229.116C708.766 228.884 708.945 228.609 709.065 228.307C709.185 228.004 709.244 227.681 709.236 227.355C709.194 226.693 708.896 226.073 708.405 225.626C707.914 225.179 707.269 224.94 706.606 224.961C706.28 224.961 705.958 225.025 705.657 225.15C705.357 225.275 705.084 225.459 704.854 225.69C704.625 225.921 704.444 226.195 704.321 226.496C704.198 226.798 704.136 227.121 704.138 227.446Z" fill="#263238"/>
<path d="M696.301 240.563C694.737 240.199 693.134 240.029 691.529 240.055C690.785 240.055 690.078 239.928 689.914 239.438C689.793 238.679 689.907 237.9 690.241 237.207C690.822 235.393 691.402 233.451 692.055 231.419C694.504 223.183 696.228 216.434 695.901 216.343C695.575 216.252 693.307 222.838 690.858 231.075C690.277 233.107 689.715 235.048 689.171 236.898C688.776 237.823 688.719 238.857 689.007 239.819C689.129 240.075 689.309 240.298 689.533 240.471C689.757 240.644 690.018 240.763 690.295 240.817C690.717 240.867 691.143 240.867 691.565 240.817C693.148 240.921 694.738 240.836 696.301 240.563Z" fill="#263238"/>
<path d="M705.535 205.113C705.844 205.821 708.365 205.295 711.395 205.44C714.425 205.585 716.838 206.256 717.255 205.585C717.4 205.277 716.929 204.623 715.913 204.007C714.559 203.247 713.044 202.818 711.493 202.755C709.942 202.692 708.398 202.997 706.987 203.644C705.916 204.17 705.408 204.787 705.535 205.113Z" fill="#263238"/>
<path d="M675.582 209.83C675.927 210.411 678.376 209.83 681.37 209.685C684.363 209.54 686.812 209.975 687.139 209.377C687.266 209.086 686.776 208.578 685.742 208.125C684.342 207.566 682.838 207.319 681.333 207.399C679.808 207.441 678.311 207.812 676.943 208.488C675.927 209.014 675.437 209.558 675.582 209.83Z" fill="#263238"/>
<path d="M647.063 193.919C647.169 193.537 647.35 193.179 647.596 192.867C647.842 192.556 648.148 192.297 648.496 192.105C650 191.42 651.66 191.151 653.304 191.325C658.328 191.232 663.228 189.744 667.455 187.025C669.429 184.189 671.631 181.52 674.04 179.043C679.755 173.165 684.436 169.155 689.298 167.196C695.575 164.674 706.08 163.567 712.629 165.382C719.178 167.196 725.056 172.421 725.982 179.115C729.61 176.013 735.162 176.049 739.643 177.845H739.752C744.723 179.66 747.553 184.885 749.022 189.964C750.492 195.044 751.127 200.487 753.812 205.041C754.374 205.984 755.046 207.127 754.556 208.125C754.329 208.486 753.997 208.77 753.605 208.938C753.213 209.107 752.779 209.152 752.361 209.068C751.52 208.888 750.728 208.529 750.038 208.016C750.601 209.358 751.145 210.683 751.707 212.007C749.891 212.323 748.026 212.205 746.265 211.663C745.35 216.191 744.169 220.662 742.727 225.051C740.87 224.833 738.995 225.29 737.448 226.34C735.633 227.918 734.926 230.875 732.005 229.75C730.535 229.17 729.193 226.122 728.685 224.58C725.403 214.532 724.321 203.896 725.51 193.393C723.446 191.196 720.983 189.41 718.253 188.132L718.471 188.332C713.21 186.517 707.259 184.703 702.27 187.17C698.405 189.094 696.138 193.103 693.199 196.242C690.538 199.225 687.299 201.637 683.679 203.33C680.058 205.024 676.131 205.964 672.135 206.093C671.863 211.39 672.299 218.883 672.027 224.235L667.564 215.745C667.213 215.156 666.892 214.551 666.602 213.93V213.749C666.155 212.713 665.652 211.701 665.096 210.719C664.478 211.216 663.703 211.475 662.911 211.449C662.119 211.424 661.362 211.117 660.777 210.582C660.192 210.047 659.817 209.321 659.721 208.534C659.625 207.747 659.813 206.952 660.252 206.292C660.699 205.676 661.238 205.132 661.849 204.678C661.201 205.308 660.4 205.759 659.525 205.985C658.65 206.211 657.731 206.204 656.86 205.966C655.996 205.703 655.243 205.162 654.718 204.427C654.193 203.692 653.926 202.804 653.957 201.902C654.032 201.295 654.264 200.718 654.63 200.228C654.996 199.739 655.483 199.352 656.043 199.108C653.707 199.296 651.369 198.777 649.331 197.62C647.879 196.84 646.573 195.588 647.063 193.919Z" fill="#263238"/>
<path d="M720.013 181.311C720.669 181.861 721.276 182.468 721.827 183.125C723.317 184.917 724.312 187.069 724.712 189.366C725.041 190.941 725.205 192.546 725.201 194.155C725.201 195.969 725.074 197.784 724.929 199.707C724.758 201.758 724.716 203.818 724.802 205.875C724.853 206.973 724.993 208.065 725.22 209.141C725.389 210.288 725.844 211.373 726.544 212.298C726.874 212.664 727.293 212.938 727.76 213.094C728.228 213.25 728.727 213.282 729.211 213.187C730.131 213.018 730.968 212.545 731.587 211.844C732.613 210.44 733.24 208.785 733.402 207.054H733.021C733.582 208.479 734.353 209.812 735.307 211.009C736.219 212.111 737.516 212.824 738.935 213.005C739.602 213.072 740.273 212.952 740.876 212.66C741.438 212.367 741.9 211.912 742.201 211.354C742.473 210.841 742.61 210.266 742.6 209.685C742.571 209.144 742.353 208.63 741.983 208.234L741.783 208.415C742.906 209.697 744.284 210.729 745.829 211.445C746.373 211.687 746.791 211.85 747.081 211.935L747.535 212.044L747.117 211.862C746.827 211.735 746.41 211.572 745.902 211.318C744.405 210.559 743.073 209.511 741.983 208.234L741.783 208.415C742.092 208.81 742.27 209.291 742.293 209.792C742.316 210.292 742.182 210.788 741.91 211.209C741.643 211.701 741.231 212.1 740.731 212.352C740.168 212.623 739.537 212.724 738.917 212.642C737.592 212.49 736.373 211.842 735.506 210.828C734.594 209.651 733.855 208.35 733.311 206.964L733.039 206.365L732.912 207.018C732.718 208.675 732.092 210.251 731.098 211.59C730.529 212.206 729.779 212.625 728.957 212.787C728.547 212.871 728.122 212.846 727.725 212.715C727.327 212.585 726.97 212.354 726.689 212.044C726.036 211.179 725.617 210.16 725.474 209.086C725.25 208.034 725.104 206.967 725.038 205.893C724.952 203.849 724.994 201.801 725.165 199.761C725.274 197.802 725.401 195.951 725.383 194.192C725.372 192.562 725.189 190.939 724.839 189.348C724.397 187.008 723.338 184.828 721.772 183.034C721.288 182.363 720.693 181.781 720.013 181.311Z" fill="#455A64"/>
<path d="M661.758 199.616L661.921 199.743C662.07 199.869 662.227 199.985 662.393 200.088C662.64 200.29 662.908 200.466 663.191 200.614C663.562 200.833 663.943 201.032 664.334 201.213C666.857 202.357 669.625 202.856 672.389 202.664C676.502 202.387 680.446 200.925 683.746 198.455C687.739 195.417 691.062 191.588 693.507 187.207C694.886 184.939 695.992 182.599 697.135 180.44C698.307 178.332 699.773 176.401 701.489 174.707C702.999 173.168 704.87 172.033 706.932 171.405C707.865 171.147 708.832 171.036 709.799 171.078C710.678 171.145 711.544 171.328 712.375 171.623C713.84 172.12 715.182 172.924 716.312 173.981C717.165 174.779 717.882 175.71 718.434 176.739C718.873 177.638 719.196 178.589 719.396 179.569C719.396 179.569 719.396 179.569 719.396 179.369C719.396 179.17 719.396 179.025 719.305 178.789C719.154 178.053 718.91 177.34 718.579 176.666C717.309 174.17 715.126 172.26 712.484 171.332C711.611 171.029 710.702 170.84 709.78 170.77C708.778 170.728 707.775 170.838 706.805 171.097C704.683 171.723 702.754 172.878 701.199 174.453C699.488 176.166 698.039 178.122 696.899 180.258C695.648 182.435 694.523 184.758 693.18 187.025C690.751 191.349 687.475 195.138 683.547 198.165C680.316 200.613 676.449 202.08 672.407 202.392C669.686 202.607 666.953 202.158 664.443 201.086C663.518 200.652 662.621 200.161 661.758 199.616Z" fill="#455A64"/>
<path d="M660.052 191.343C660.052 191.343 660.27 191.543 660.724 191.815C661.363 192.203 662.03 192.542 662.719 192.831C663.745 193.267 664.808 193.613 665.894 193.865C667.222 194.178 668.577 194.36 669.94 194.409C671.306 194.443 672.672 194.352 674.022 194.137C675.114 193.953 676.189 193.674 677.233 193.303C677.944 193.06 678.635 192.763 679.301 192.414C679.552 192.301 679.789 192.161 680.009 191.997C680.009 191.997 678.938 192.45 677.142 193.012C676.095 193.324 675.028 193.567 673.949 193.738C672.627 193.922 671.292 194.001 669.958 193.974C668.623 193.915 667.294 193.751 665.985 193.484C664.916 193.249 663.867 192.934 662.846 192.541C661.105 191.87 660.089 191.271 660.052 191.343Z" fill="#455A64"/>
<path d="M675.455 218.539C675.818 218.92 677.995 217.16 681.152 217.087C684.309 217.015 686.595 218.539 686.994 218.139C687.393 217.74 686.758 217.25 685.742 216.543C684.354 215.616 682.711 215.147 681.043 215.2C679.399 215.251 677.815 215.83 676.526 216.851C675.564 217.65 675.256 218.357 675.455 218.539Z" fill="#263238"/>
<path d="M678.666 227.446C678.708 228.109 679.006 228.729 679.497 229.176C679.988 229.623 680.633 229.861 681.297 229.841C681.623 229.843 681.947 229.781 682.248 229.656C682.55 229.532 682.824 229.349 683.053 229.117C683.283 228.886 683.465 228.611 683.587 228.308C683.709 228.006 683.769 227.682 683.764 227.355C683.718 226.691 683.416 226.071 682.922 225.625C682.428 225.178 681.781 224.94 681.115 224.961C680.791 224.961 680.469 225.025 680.17 225.151C679.87 225.276 679.599 225.46 679.371 225.691C679.143 225.922 678.963 226.196 678.842 226.498C678.721 226.799 678.661 227.122 678.666 227.446Z" fill="#263238"/>
<path d="M733.329 225.904C733.638 225.741 746.029 221.133 746.519 234.032C747.008 246.931 733.982 244.79 733.946 244.428C733.91 244.065 733.329 225.904 733.329 225.904Z" fill="#FFBF9D"/>
<path d="M737.774 239.384C737.774 239.384 738.01 239.529 738.391 239.693C738.934 239.902 739.535 239.902 740.078 239.693C740.889 239.129 741.535 238.36 741.95 237.464C742.364 236.568 742.532 235.577 742.437 234.595C742.436 233.487 742.181 232.395 741.693 231.401C741.552 230.997 741.312 230.634 740.995 230.346C740.678 230.058 740.294 229.853 739.879 229.751C739.62 229.699 739.351 229.738 739.117 229.86C738.882 229.982 738.697 230.18 738.591 230.422C738.427 230.785 738.591 231.039 738.445 231.075C738.3 231.111 738.173 230.875 738.246 230.331C738.313 230.011 738.478 229.719 738.717 229.497C739.068 229.223 739.507 229.087 739.951 229.116C740.484 229.202 740.987 229.421 741.412 229.755C741.838 230.088 742.171 230.523 742.382 231.021C742.99 232.133 743.308 233.381 743.307 234.649C743.307 237.243 742.11 239.729 740.26 240.346C739.918 240.461 739.555 240.497 739.197 240.453C738.839 240.409 738.495 240.286 738.191 240.092C737.774 239.693 737.647 239.402 737.774 239.384Z" fill="#FF9A6C"/>
<path d="M705.481 243.139C705.59 243.139 705.59 243.901 705.154 244.953C704.522 246.369 703.487 247.568 702.179 248.4C700.906 249.258 699.395 249.69 697.861 249.634C696.682 249.525 696.047 249.126 696.047 249.035C696.047 248.945 696.773 249.035 697.861 249.035C699.244 248.933 700.58 248.484 701.744 247.729C702.917 246.975 703.904 245.964 704.628 244.772C705.118 243.774 705.336 243.103 705.481 243.139Z" fill="#263238"/>
<path d="M770.43 753.245L774.276 796.787L787.919 830.459C788.143 831.045 788.239 831.673 788.202 832.299C788.165 832.926 787.995 833.538 787.703 834.093C787.412 834.649 787.005 835.137 786.51 835.524C786.016 835.91 785.445 836.188 784.835 836.337C784.113 836.552 783.352 836.598 782.61 836.472C781.867 836.346 781.164 836.052 780.553 835.611C772.77 829.951 744.704 809.123 744.396 806.42C743.997 802.9 736.831 760.03 736.831 760.03L770.43 753.245Z" fill="#455A64"/>
<path d="M784.944 836.391L743.725 801.504L744.142 804.733C744.414 806.547 744.45 807.455 745.684 808.561C756.638 818.483 768.146 827.775 780.154 836.391C780.893 836.737 781.698 836.915 782.513 836.915C783.328 836.915 784.133 836.737 784.871 836.391H784.944Z" fill="#263238"/>
<path d="M751.744 787.897C752.347 788.209 752.808 788.74 753.03 789.381C753.253 790.023 753.221 790.726 752.941 791.344C752.578 791.942 752.009 792.388 751.342 792.598C750.674 792.809 749.953 792.769 749.312 792.487C748.683 792.153 748.205 791.592 747.975 790.918C747.746 790.243 747.783 789.507 748.079 788.859C748.518 788.27 749.159 787.865 749.88 787.721C750.6 787.577 751.347 787.704 751.979 788.078" fill="white"/>
<path d="M772.136 818.43C772.408 818.539 773.188 816.144 775.764 814.657C777.4 813.858 779.161 813.349 780.971 813.151C780.971 813.042 780.372 812.77 779.284 812.734C777.847 812.722 776.435 813.104 775.202 813.84C773.999 814.537 773.027 815.572 772.408 816.816C772.009 817.759 772.009 818.412 772.136 818.43Z" fill="#263238"/>
<path d="M776.09 823.928C776.326 824.109 777.651 822.531 779.973 821.66C781.439 821.236 782.929 820.902 784.436 820.662C783.673 820.313 782.84 820.141 782.001 820.16C781.162 820.179 780.339 820.388 779.592 820.771C776.943 821.787 775.873 823.837 776.09 823.928Z" fill="#263238"/>
<path d="M765.151 811.591C766.968 810.149 768.89 808.845 770.902 807.69C773.078 806.8 775.316 806.067 777.596 805.495C775.125 805.123 772.6 805.596 770.43 806.838C766.693 808.634 764.988 811.482 765.151 811.591Z" fill="#263238"/>
<path d="M762.81 798.42C762.955 798.674 765.404 797.404 768.706 796.968C772.008 796.533 774.748 796.968 774.82 796.733C772.873 795.799 770.67 795.543 768.561 796.007C766.426 796.135 764.397 796.985 762.81 798.42Z" fill="#263238"/>
<path d="M761.359 785.647C763.268 784.689 765.349 784.121 767.48 783.978C769.61 783.835 771.749 784.119 773.768 784.813C773.768 784.704 773.279 784.214 772.136 783.742C770.631 783.152 769.013 782.904 767.4 783.017C765.791 783.108 764.226 783.574 762.829 784.377C761.74 784.994 761.25 785.557 761.359 785.647Z" fill="#263238"/>
<path d="M767.074 781.547C767.074 781.547 767.183 780.949 766.965 779.896C766.646 778.398 766.029 776.979 765.151 775.724C764.553 774.732 763.649 773.961 762.575 773.528C762.202 773.417 761.805 773.416 761.431 773.525C761.058 773.635 760.724 773.85 760.47 774.145C760.254 774.436 760.098 774.767 760.011 775.119C759.923 775.471 759.907 775.837 759.962 776.195C760.277 777.69 761.099 779.029 762.29 779.985C763.481 780.941 764.966 781.454 766.493 781.438C768.018 781.462 769.517 781.041 770.806 780.226C772.095 779.41 773.118 778.237 773.75 776.848C773.894 776.509 773.959 776.142 773.94 775.775C773.921 775.407 773.819 775.048 773.641 774.726C773.409 774.411 773.088 774.172 772.72 774.04C772.352 773.908 771.953 773.887 771.573 773.982C770.475 774.336 769.484 774.96 768.689 775.796C767.559 776.835 766.62 778.063 765.913 779.425C765.62 779.905 765.434 780.444 765.368 781.003C766.404 779.234 767.694 777.626 769.197 776.232C769.909 775.528 770.78 775.006 771.736 774.708C771.942 774.65 772.161 774.657 772.362 774.728C772.564 774.8 772.738 774.932 772.861 775.107C772.961 775.326 773.013 775.564 773.013 775.805C773.013 776.046 772.961 776.284 772.861 776.504C772.284 777.681 771.388 778.672 770.275 779.365C769.162 780.057 767.877 780.424 766.566 780.422C765.272 780.427 764.014 779.997 762.994 779.201C761.974 778.405 761.251 777.288 760.942 776.032C760.854 775.535 760.957 775.023 761.232 774.599C761.368 774.431 761.552 774.308 761.759 774.246C761.966 774.185 762.187 774.188 762.393 774.254C763.303 774.62 764.081 775.252 764.625 776.068C765.773 777.728 766.603 779.585 767.074 781.547Z" fill="#263238"/>
<path d="M660.596 755.495L662.302 792.415C662.302 792.415 622.951 806.457 622.57 813.315L698.859 812.752L698.695 755.114L660.596 755.495Z" fill="#455A64"/>
<path d="M685.869 789.131C686.587 789.308 687.211 789.751 687.615 790.371C688.019 790.99 688.173 791.74 688.046 792.469C687.827 793.184 687.347 793.791 686.703 794.171C686.058 794.55 685.295 794.674 684.563 794.519C683.806 794.333 683.148 793.865 682.723 793.212C682.299 792.558 682.139 791.767 682.277 790.999C682.577 790.264 683.143 789.669 683.863 789.332C684.583 788.996 685.403 788.944 686.159 789.185" fill="#E0E0E0"/>
<path d="M698.859 812.752L698.605 806.946L625.546 809.649C625.546 809.649 622.171 811.065 622.57 813.278L698.859 812.752Z" fill="#263238"/>
<path d="M661.068 792.088C661.068 792.433 662.882 792.578 664.697 793.685C666.511 794.791 667.527 796.261 667.872 796.116C668.216 795.97 667.636 793.957 665.386 792.65C663.136 791.344 660.977 791.743 661.068 792.088Z" fill="#263238"/>
<path d="M653.086 795.227C653.086 795.571 654.628 796.152 655.898 797.621C657.168 799.091 657.567 800.669 657.93 800.651C658.293 800.633 658.529 798.637 656.896 796.841C655.263 795.045 653.104 794.9 653.086 795.227Z" fill="#263238"/>
<path d="M648.623 804.261C648.968 804.261 649.458 802.592 648.496 800.633C647.534 798.674 645.775 797.984 645.611 798.275C645.448 798.565 646.555 799.581 647.317 801.159C648.079 802.738 648.26 804.243 648.623 804.261Z" fill="#263238"/>
<path d="M661.667 783.597C661.83 783.924 663.481 783.434 665.64 783.597C667.799 783.761 669.396 784.323 669.577 784.033C669.759 783.743 668.198 782.491 665.713 782.382C663.227 782.273 661.576 783.325 661.667 783.597Z" fill="#263238"/>
<path d="M647.316 490.346C647.316 492.468 656.17 787.607 656.17 787.607H703.34L712.901 535.139C712.901 535.139 724.058 667.142 724.058 669.991C724.058 672.839 733.891 789.022 733.891 789.022L777.614 785.666L774.729 519.954L769.396 480.984L647.316 490.346Z" fill="#263238"/>
<path d="M717.817 525.796C717.22 526.134 716.579 526.391 715.913 526.558C714.661 526.993 712.828 527.592 710.579 528.372L710.161 528.499V528.082C709.907 524.544 709.599 519.791 709.327 514.584C709.018 508.942 708.801 503.844 708.692 500.07C708.692 498.256 708.601 496.714 708.601 495.68C708.547 495.139 708.584 494.593 708.71 494.065C708.861 494.584 708.947 495.121 708.964 495.661C709.091 496.696 709.218 498.201 709.345 500.034C709.635 503.662 709.962 508.833 710.252 514.548C710.542 519.754 710.742 524.508 710.851 528.064L710.397 527.773C712.683 527.138 714.534 526.63 715.84 526.304C716.481 526.07 717.143 525.9 717.817 525.796Z" fill="#455A64"/>
<path d="M714.189 495.117C714.189 495.117 714.334 494.882 714.824 494.718C715.514 494.536 716.245 494.601 716.892 494.9C717.38 495.078 717.797 495.41 718.082 495.844C718.366 496.279 718.502 496.794 718.471 497.313C718.41 497.968 718.135 498.586 717.69 499.071C717.244 499.556 716.652 499.881 716.003 499.998C715.344 500.097 714.67 500.012 714.055 499.752C713.441 499.493 712.91 499.07 712.52 498.528C712.248 498.11 712.103 497.621 712.103 497.122C712.103 496.623 712.248 496.134 712.52 495.716C712.896 495.153 713.443 494.727 714.08 494.501C714.552 494.337 714.824 494.374 714.842 494.41C714.86 494.446 713.772 494.755 713.119 495.988C712.927 496.317 712.835 496.695 712.855 497.075C712.874 497.455 713.003 497.821 713.228 498.129C713.521 498.517 713.913 498.819 714.363 499.004C714.813 499.189 715.304 499.25 715.786 499.181C716.235 499.095 716.648 498.876 716.971 498.553C717.295 498.229 717.514 497.816 717.6 497.367C717.635 496.995 717.555 496.621 717.37 496.296C717.185 495.971 716.904 495.712 716.566 495.553C715.84 495.16 715.007 495.007 714.189 495.117Z" fill="#455A64"/>
<path d="M735.851 498.183C735.597 498.183 735.234 496.913 735.053 495.317C734.871 493.72 734.926 492.396 735.18 492.378C735.434 492.359 735.796 493.629 735.978 495.226C736.159 496.823 736.105 498.183 735.851 498.183Z" fill="#455A64"/>
<path d="M739.116 497.838C738.862 497.838 738.645 496.478 738.645 494.791C738.645 493.103 738.826 491.743 739.098 491.743C739.37 491.743 739.57 493.103 739.57 494.791C739.57 496.478 739.388 497.838 739.116 497.838Z" fill="#455A64"/>
<path d="M682.277 499.87C682.023 499.87 681.624 498.365 681.388 496.46C681.152 494.555 681.17 492.958 681.388 492.94C681.606 492.922 682.041 494.446 682.277 496.369C682.513 498.292 682.531 499.852 682.277 499.87Z" fill="#455A64"/>
<path d="M686.25 500.161C685.412 499.145 684.996 497.846 685.089 496.532C684.892 495.263 685.184 493.967 685.905 492.904C686.177 492.904 685.905 494.573 686.032 496.532C686.159 498.492 686.504 500.088 686.25 500.161Z" fill="#455A64"/>
<path d="M671.337 496.224C671.356 496.66 671.301 497.095 671.174 497.512C670.946 498.689 670.631 499.847 670.23 500.977C668.885 504.787 666.91 508.344 664.389 511.5C661.769 514.755 658.66 517.582 655.172 519.882C654.1 520.59 652.985 521.232 651.834 521.805C651.415 522.04 650.971 522.229 650.51 522.367C650.51 522.258 652.215 521.315 654.809 519.446C658.147 517.078 661.139 514.257 663.699 511.065C666.171 507.952 668.181 504.5 669.668 500.814C670.775 498.002 671.192 496.188 671.337 496.224Z" fill="#455A64"/>
<path d="M773.296 516.108C772.831 516.246 772.349 516.319 771.863 516.325C770.547 516.429 769.224 516.429 767.908 516.325C763.601 515.911 759.457 514.467 755.825 512.116C752.385 509.863 749.611 506.731 747.788 503.045C747.259 501.973 746.845 500.848 746.555 499.689C746.408 499.282 746.34 498.851 746.355 498.419C746.5 498.419 746.899 500.233 748.333 502.828C750.247 506.336 752.994 509.32 756.333 511.518C759.851 513.788 763.829 515.251 767.981 515.799C771.228 516.162 773.278 515.963 773.296 516.108Z" fill="#455A64"/>
<path d="M696.464 665.564C696.464 665.763 688.59 664.058 679.011 661.79C669.432 659.522 661.703 657.49 661.776 657.291C661.848 657.091 669.65 658.779 679.229 661.064C688.808 663.35 696.518 665.364 696.464 665.564Z" fill="#455A64"/>
<path d="M772.444 654.824C772.553 655.005 765.749 658.543 757.259 662.752C748.768 666.961 741.765 670.208 741.657 670.009C741.548 669.809 748.351 666.271 756.842 662.081C765.332 657.89 772.335 654.642 772.444 654.824Z" fill="#455A64"/>
<path d="M624.421 390.4L630.861 398.473V384.595H651.181C651.181 384.595 653.43 416.362 652.995 423.129C652.513 426.656 651.681 430.126 650.509 433.488C649.903 435.444 648.802 437.211 647.313 438.619C645.825 440.026 643.998 441.026 642.011 441.522C640.023 442.018 637.942 441.993 635.967 441.45C633.991 440.907 632.189 439.865 630.734 438.423C628.46 436.21 626.339 433.847 624.385 431.347C615.313 419.736 600.364 391.434 600.364 391.434L616.039 382.073L624.421 390.4Z" fill="#FFBF9D"/>
<path d="M623.133 388.913C623.9 390.202 624.787 391.417 625.782 392.541C627.596 394.664 629.882 397.585 632.585 400.741C635.288 403.898 637.864 406.692 639.842 408.597C640.844 409.696 642.006 410.638 643.289 411.391C642.369 410.239 641.375 409.148 640.314 408.125C638.499 406.13 635.996 403.281 633.292 400.125C627.941 393.702 623.369 388.695 623.133 388.913Z" fill="#FF9A6C"/>
<path d="M670.756 292.813L692.182 284.395L731.642 282.164L750.183 289.221L724.766 303.336L702.85 302.537L670.756 292.813Z" fill="#FFBF9D"/>
<path d="M645.484 494.373C647.425 494.7 776.707 500.197 776.707 500.197L772.244 383.887L771.863 361.064L764.606 291.924C764.606 291.924 745.267 285.266 735.415 282.091C735.415 282.091 725.038 292.976 705.299 292.613C686.014 292.341 681.986 287.987 681.986 287.987L655.027 298.328C655.027 298.328 635.851 305.204 632.549 313.695C629.247 322.185 623.478 369.119 623.478 369.119H651.435L650.691 452.519L645.484 494.373Z" fill="#455A64"/>
<g opacity="0.2">
<path d="M726.78 339.221L730.789 368.539L750.183 377.193L764.516 364.983V337.77L726.78 339.221Z" fill="black"/>
</g>
<path d="M764.008 347.603C764.008 347.838 755.952 348.038 746.01 348.038C736.068 348.038 727.995 347.838 727.995 347.603C733.989 347.148 740.002 346.996 746.01 347.149C752.013 346.996 758.02 347.147 764.008 347.603Z" fill="#263238"/>
<path d="M636.776 325.832C636.868 326.086 636.941 326.346 636.994 326.612C637.121 327.192 637.284 327.918 637.502 328.843C638.198 331.643 639.059 334.399 640.078 337.098C641.366 340.563 643.18 344.645 645.412 349.217C647.643 353.789 649.421 359.25 651.399 365.055C651.399 372.022 651.399 379.569 651.253 387.606C651.072 405.385 650.891 421.478 650.782 433.216C650.673 438.985 650.6 443.684 650.528 447.04C650.528 448.6 650.491 449.852 650.419 450.795C650.427 451.233 650.397 451.67 650.328 452.102C650.297 451.661 650.297 451.218 650.328 450.777C650.328 449.858 650.328 448.606 650.328 447.022C650.328 443.684 650.328 438.967 650.328 433.197C650.328 421.459 650.473 405.367 650.564 387.606C650.564 379.642 650.709 372.022 650.764 365.055V365.182C648.822 359.377 646.954 353.988 644.922 349.362C642.982 345.379 641.25 341.297 639.733 337.134C638.752 334.409 637.958 331.621 637.356 328.789C637.175 327.791 637.03 326.974 636.957 326.503C636.876 326.285 636.816 326.06 636.776 325.832Z" fill="#263238"/>
<path d="M773.841 312.261C773.904 313.089 773.904 313.919 773.841 314.747C773.841 316.561 773.696 318.774 773.587 321.496C773.351 327.337 773.042 335.139 772.698 343.756C772.353 352.374 771.954 360.193 771.7 366.035C771.537 368.756 771.41 371.024 771.301 372.784C771.297 373.613 771.212 374.439 771.047 375.251C770.981 374.424 770.981 373.593 771.047 372.766C771.047 370.951 771.047 368.738 771.174 366.017C771.319 360.302 771.573 352.428 771.936 343.738C772.299 335.048 772.698 327.156 773.061 321.478C773.242 318.629 773.423 316.325 773.587 314.729C773.599 313.9 773.684 313.075 773.841 312.261Z" fill="#263238"/>
<g opacity="0.3">
<path d="M636.849 330.095C636.356 342.862 640.92 355.307 649.548 364.729C646.918 352.737 640.35 341.579 636.849 330.095Z" fill="black"/>
</g>
<g opacity="0.3">
<path d="M693.634 445.172C699.712 444.362 705.255 441.275 709.145 436.536C713.238 431.965 716.743 426.9 719.577 421.46C723.235 414.059 725.311 405.977 725.673 397.729C718.144 417.922 707.113 433.887 693.634 445.172Z" fill="black"/>
</g>
<path d="M728.068 388.93C728.056 389.181 728.019 389.43 727.959 389.674C727.832 390.255 727.669 390.944 727.487 391.779C727.306 392.613 727.016 393.792 726.616 395.062C726.217 396.332 725.836 397.784 725.256 399.362C723.985 403.076 722.495 406.711 720.793 410.247C716.63 418.907 711.288 426.948 704.918 434.141C702.318 437.076 699.531 439.839 696.573 442.414C695.357 443.557 694.142 444.464 693.108 445.298C692.074 446.133 691.166 446.804 690.386 447.33L688.572 448.546C688.155 448.8 687.937 448.945 687.919 448.909C688.079 448.717 688.261 448.547 688.463 448.401L690.15 447.058C690.894 446.514 691.783 445.806 692.781 444.935C693.779 444.065 694.958 443.121 696.156 441.978C699.021 439.347 701.74 436.561 704.301 433.633C707.404 430.018 710.293 426.226 712.955 422.276C715.557 418.295 717.932 414.17 720.067 409.921C721.783 406.43 723.315 402.851 724.657 399.199C725.274 397.657 725.709 396.205 726.127 394.954C726.544 393.702 726.889 392.613 727.143 391.724C727.397 390.835 727.578 390.237 727.759 389.674C727.941 389.112 728.032 388.912 728.068 388.93Z" fill="#263238"/>
<path d="M724.33 352.537C724.302 352.939 724.248 353.339 724.167 353.735C724.022 354.587 723.822 355.712 723.586 357.109C723.351 358.506 722.988 360.356 722.462 362.407C721.936 364.457 721.464 366.833 720.647 369.373C720.285 370.643 719.885 371.986 719.468 373.383C719.051 374.78 718.507 376.195 717.999 377.664C717.037 380.658 715.731 383.742 714.37 387.007C708.411 401.103 700.402 414.24 690.604 425.995C688.3 428.644 686.141 431.22 683.927 433.433C682.839 434.558 681.823 435.683 680.771 436.681C679.718 437.679 678.721 438.658 677.741 439.566C675.927 441.38 673.967 442.958 672.298 444.337C670.629 445.716 669.287 446.859 668.089 447.748L665.35 449.816C665.051 450.078 664.722 450.303 664.37 450.487C664.635 450.194 664.926 449.927 665.241 449.689L667.872 447.494C669.033 446.568 670.448 445.426 671.99 443.992C673.532 442.559 675.401 441.035 677.269 439.13L680.245 436.227C681.279 435.211 682.277 434.087 683.347 432.962C685.542 430.73 687.665 428.154 689.951 425.487C699.664 413.752 707.655 400.691 713.681 386.699C715.023 383.452 716.33 380.404 717.309 377.446C717.835 375.959 718.38 374.562 718.815 373.183C719.25 371.804 719.65 370.48 720.049 369.21C720.883 366.688 721.409 364.348 721.972 362.298C722.534 360.248 722.933 358.488 723.224 357.036C723.514 355.585 723.786 354.551 723.967 353.698C724.046 353.299 724.168 352.91 724.33 352.537Z" fill="#263238"/>
<path d="M622.171 316.38L671.954 392.069C672.192 392.427 672.321 392.845 672.327 393.274C672.333 393.704 672.215 394.126 671.987 394.489C671.759 394.853 671.431 395.144 671.042 395.326C670.653 395.508 670.22 395.574 669.795 395.516L612.465 388.259C612.164 388.217 611.873 388.115 611.612 387.959C611.35 387.804 611.122 387.597 610.941 387.352L556.188 312.57C555.917 312.224 555.753 311.806 555.716 311.368C555.68 310.93 555.772 310.491 555.983 310.105C556.193 309.719 556.512 309.403 556.9 309.196C557.288 308.989 557.728 308.901 558.166 308.941L617.146 313.295C618.165 313.388 619.148 313.714 620.02 314.249C620.892 314.784 621.628 315.513 622.171 316.38Z" fill="#E0E0E0"/>
<path d="M622.171 316.379C622.048 316.133 621.896 315.901 621.718 315.69C621.213 315.064 620.598 314.535 619.904 314.13C618.722 313.513 617.408 313.195 616.076 313.205L610.778 312.769L576.779 310.102L565.513 309.231L559.526 308.778C559 308.778 558.546 308.778 557.948 308.778C557.335 308.798 556.75 309.036 556.297 309.449C555.836 309.869 555.54 310.438 555.46 311.056C555.38 311.674 555.523 312.301 555.861 312.824L571.79 334.685C583.039 350.051 595.375 366.942 608.347 384.685C609.182 385.792 609.925 386.862 610.832 388.023C611.111 388.331 611.459 388.567 611.848 388.713C612.205 388.838 612.578 388.911 612.955 388.93L614.987 389.184L623.006 390.2L638.681 392.16L668.325 395.788C668.942 395.788 669.45 395.951 670.14 395.988C670.493 395.99 670.843 395.923 671.17 395.789C671.497 395.655 671.794 395.457 672.044 395.208C672.52 394.72 672.797 394.074 672.825 393.393C672.797 392.73 672.555 392.093 672.135 391.579L668.289 385.701L661.032 374.816L648.042 355.168C640.096 343.212 633.674 333.506 629.192 326.775L624.022 319.064C623.441 318.23 622.988 317.559 622.643 317.087C622.497 316.851 622.333 316.627 622.153 316.416C622.278 316.666 622.417 316.908 622.57 317.141L623.859 319.173C625.02 320.988 626.707 323.618 628.866 326.975L647.48 355.549L660.379 375.251L667.636 386.227L671.41 391.978C671.735 392.36 671.927 392.838 671.954 393.339C671.936 393.815 671.742 394.268 671.41 394.609C671.072 394.944 670.615 395.133 670.14 395.135C669.65 395.135 668.978 394.99 668.416 394.935L638.717 391.144L623.042 389.166L615.023 388.15L613.01 387.896C612.709 387.871 612.411 387.816 612.121 387.733C611.865 387.634 611.636 387.479 611.449 387.279C610.651 386.191 609.853 385.12 609.054 384.014C596.065 366.307 583.655 349.435 572.443 334.068C566.801 326.412 561.467 319.119 556.46 312.297C556.273 312.028 556.163 311.713 556.14 311.386C556.118 311.059 556.185 310.731 556.334 310.439C556.483 310.147 556.708 309.901 556.986 309.726C557.264 309.552 557.584 309.456 557.911 309.449C558.329 309.449 558.909 309.449 559.399 309.54L565.386 309.975L576.671 310.773L610.778 313.132L616.112 313.495C617.412 313.451 618.703 313.732 619.867 314.311C620.775 314.827 621.561 315.532 622.171 316.379Z" fill="#263238"/>
<path d="M556.188 312.624C556.58 312.725 556.981 312.786 557.385 312.806L560.869 313.169L573.822 314.312L617.872 317.94L617.527 317.74C620.285 321.841 623.133 326.086 625.981 330.44C637.61 348.31 647.752 364.747 655.426 376.431C659.236 382.291 662.411 386.971 664.624 390.201L667.201 393.829C667.478 394.272 667.801 394.685 668.162 395.063C667.923 394.6 667.657 394.151 667.364 393.72L664.933 389.929L655.989 376.013C648.478 364.239 638.409 347.766 626.78 329.878C623.931 325.469 621.065 321.224 618.289 317.178L618.162 316.997H618.035L573.967 313.731L560.996 312.86L557.494 312.661C557.06 312.616 556.624 312.604 556.188 312.624Z" fill="#263238"/>
<path d="M590.314 324.181C590.347 324.03 590.411 323.888 590.502 323.763C590.592 323.637 590.707 323.532 590.839 323.452C590.971 323.372 591.118 323.32 591.271 323.299C591.424 323.278 591.58 323.288 591.729 323.328C592.313 323.461 592.848 323.757 593.271 324.181C593.54 324.427 593.715 324.759 593.765 325.12C593.814 325.482 593.736 325.849 593.543 326.158C592.981 326.866 591.729 326.594 591.112 326.013C590.834 325.801 590.614 325.522 590.474 325.201C590.335 324.88 590.279 324.529 590.314 324.181Z" fill="white"/>
<path d="M617.092 366.597C617.092 366.597 619.341 361.155 613.608 360.502C606.677 360.141 599.731 360.141 592.799 360.502C592.799 360.502 584.544 361.372 586.286 367.287C586.286 367.287 581.424 371.641 584.036 376.358C586.649 381.075 587.665 379.66 587.665 379.66C587.665 379.66 586.975 385.411 591.293 386.264C591.293 386.264 596.01 391.833 600.364 391.489C604.719 391.144 623.133 382.272 624.349 380.603C625.564 378.934 627.306 377.882 626.272 375.941C626.272 375.941 628.521 370.843 623.659 370.063C623.695 369.972 623.351 365.745 617.092 366.597Z" fill="#FFBF9D"/>
<path d="M590.93 368.539C592.206 368.805 593.511 368.902 594.813 368.829C597.207 368.829 600.509 368.829 604.156 368.829C607.298 368.92 610.443 368.738 613.554 368.285C616.021 367.704 617.001 366.253 616.892 366.216C615.826 366.892 614.645 367.365 613.408 367.613C611.141 367.994 607.784 367.758 604.138 367.885C600.491 368.012 597.189 368.049 594.794 368.158C593.496 368.129 592.198 368.257 590.93 368.539Z" fill="#FF9A6C"/>
<path d="M595.031 377.247C595.414 377.471 595.841 377.614 596.283 377.664C597.476 377.907 598.696 377.986 599.911 377.9C601.682 377.765 603.433 377.443 605.136 376.938C607.059 376.412 609.109 375.668 611.268 375.015C613.274 374.351 615.35 373.919 617.455 373.727C619.273 373.896 621.102 373.53 622.716 372.675C623.346 372.249 623.793 371.601 623.968 370.861C624.084 370.308 624.007 369.731 623.75 369.228C623.296 368.411 622.68 368.357 622.698 368.393C622.716 368.43 623.133 368.647 623.405 369.391C623.579 369.895 623.567 370.445 623.371 370.941C623.174 371.437 622.807 371.846 622.335 372.094C620.785 372.776 619.082 373.033 617.4 372.838C615.221 372.974 613.069 373.388 610.996 374.072L604.9 376.086C603.253 376.598 601.566 376.974 599.857 377.21C598.25 377.32 596.639 377.332 595.031 377.247Z" fill="#FF9A6C"/>
<path d="M601.199 384.595C602.52 384.519 603.826 384.269 605.081 383.851C607.44 383.252 610.669 382.327 614.152 381.184C617.636 380.041 620.829 378.862 623.078 377.936C624.356 377.535 625.576 376.968 626.707 376.249C626.598 375.995 620.938 378.063 614.007 380.259C607.077 382.454 601.126 384.341 601.199 384.595Z" fill="#FF9A6C"/>
<path d="M599.729 391.416C600.813 391.511 601.905 391.388 602.94 391.053C605.471 390.439 607.933 389.57 610.288 388.459C613.046 387.207 615.459 385.919 617.2 384.994C618.195 384.573 619.124 384.011 619.958 383.325C616.483 384.447 613.114 385.874 609.889 387.588C604.464 390.201 599.693 391.144 599.729 391.416Z" fill="#FF9A6C"/>
<path d="M783.003 339.547C783.003 339.547 771.283 386.5 756.642 403.844C742.455 420.643 720.231 412.915 712.538 391.144C704.846 369.373 691.13 319.827 691.13 319.827L707.966 306.946L736.994 363.35L750.111 324.907L783.003 339.547Z" fill="#FFBF9D"/>
<path d="M691.91 321.169L679.555 303.263C677.757 302.875 675.996 302.328 674.294 301.63C672.897 300.814 671.518 293.702 671.555 292.323C671.591 290.944 669.16 287.697 670.14 286.772C671.119 285.846 674.421 285.792 674.24 284.468C674.24 284.177 671.791 281.202 673.714 279.025C674.774 278.324 675.955 277.826 677.197 277.555L676.997 270.716C676.997 270.716 680.626 262.661 684.454 265.581C684.454 265.581 698.659 276.467 700.092 278.281C701.526 280.095 707.005 302.755 707.966 307.018" fill="#FFBF9D"/>
<path d="M707.966 306.982C707.947 306.578 707.886 306.176 707.785 305.785C707.585 304.914 707.349 303.789 707.041 302.374C706.388 299.398 705.39 295.117 704.047 289.837C703.358 287.189 702.614 284.395 701.653 281.22C701.417 280.458 701.163 279.678 700.836 278.88C700.461 278.067 699.887 277.361 699.167 276.829C697.861 275.687 696.5 274.562 695.103 273.419C692.291 271.151 689.298 268.792 686.195 266.38C685.412 265.682 684.532 265.102 683.583 264.656C683.028 264.523 682.45 264.523 681.895 264.655C681.341 264.788 680.825 265.049 680.39 265.418C678.769 266.828 677.476 268.574 676.598 270.534V270.643C676.598 271.314 676.598 272.022 676.598 272.729C676.598 274.326 676.598 275.922 676.743 277.483L677.07 277.047C676.213 277.254 675.376 277.533 674.566 277.882C674.115 278.069 673.702 278.34 673.351 278.68C673.038 279.046 672.803 279.472 672.661 279.932C672.429 280.838 672.506 281.795 672.879 282.653C673.029 283.063 673.218 283.458 673.441 283.832L673.75 284.359V284.486C673.759 284.527 673.759 284.571 673.75 284.612C673.75 284.758 673.387 284.975 673.042 285.102C672.698 285.229 672.317 285.356 671.936 285.483C671.542 285.588 671.154 285.716 670.775 285.864C670.299 286.001 669.883 286.296 669.595 286.699C669.406 287.164 669.406 287.685 669.595 288.15C669.704 288.542 669.844 288.924 670.013 289.293C670.321 290.019 670.666 290.708 670.92 291.38C671.048 291.685 671.122 292.01 671.137 292.341C671.145 292.73 671.181 293.118 671.246 293.502C671.355 294.246 671.482 294.972 671.645 295.697C671.928 297.096 672.31 298.472 672.788 299.816C673.018 300.518 673.388 301.166 673.877 301.721C674.469 302.104 675.118 302.392 675.8 302.573C677.052 302.954 678.285 303.263 679.428 303.535L679.229 303.408L688.3 316.398L690.84 319.917C691.121 320.342 691.437 320.742 691.783 321.115C691.551 320.663 691.29 320.227 691.003 319.808L688.608 316.18C686.449 312.969 683.42 308.488 679.701 303.009V302.9H679.719C678.558 302.61 677.342 302.283 676.09 301.902C675.509 301.736 674.954 301.492 674.439 301.176C674.049 300.699 673.753 300.151 673.568 299.562C673.105 298.248 672.742 296.902 672.48 295.534C672.335 294.827 672.208 294.119 672.099 293.393C672.099 293.049 672.099 292.668 672.099 292.341C672.083 291.919 671.997 291.502 671.845 291.107C671.573 290.364 671.228 289.674 670.938 288.967C670.779 288.634 670.652 288.288 670.557 287.933C670.458 287.663 670.458 287.367 670.557 287.098C670.765 286.881 671.029 286.724 671.319 286.644C671.68 286.502 672.05 286.381 672.425 286.282C672.806 286.155 673.206 286.046 673.605 285.882C674.104 285.728 674.521 285.382 674.766 284.921C674.832 284.773 674.863 284.611 674.857 284.449C674.852 284.335 674.821 284.223 674.766 284.123V283.978L674.457 283.451C674.263 283.107 674.093 282.75 673.949 282.381C673.657 281.7 673.594 280.942 673.768 280.222C673.864 279.873 674.038 279.551 674.276 279.279C674.549 279.039 674.862 278.848 675.201 278.716C675.965 278.388 676.754 278.121 677.56 277.918L677.886 277.827V277.483C677.886 275.922 677.796 274.344 677.741 272.747C677.741 272.04 677.741 271.314 677.741 270.661V270.861C678.548 269.03 679.743 267.395 681.243 266.071C681.564 265.774 681.955 265.56 682.379 265.449C682.803 265.339 683.247 265.334 683.674 265.436C684.519 265.851 685.306 266.376 686.014 266.996C689.135 269.409 692.128 271.75 694.94 273.999C696.355 275.124 697.716 276.231 699.004 277.337C699.656 277.8 700.175 278.426 700.51 279.152C700.818 279.896 701.072 280.676 701.326 281.419C702.288 284.467 703.14 287.352 703.793 289.964C705.154 295.171 706.279 299.398 707.059 302.428C707.44 303.825 707.73 304.95 707.948 305.803C707.913 306.195 707.919 306.591 707.966 306.982Z" fill="#FF9A6C"/>
<path d="M677.197 277.555C677.197 277.7 678.63 277.555 680.825 277.809C682.139 278.012 683.437 278.309 684.708 278.698C686.374 278.935 688.066 278.935 689.733 278.698C691.163 278.497 692.621 278.625 693.995 279.071C695.368 279.517 696.622 280.271 697.661 281.275C698.465 282.168 699.11 283.192 699.566 284.304C699.575 283.658 699.45 283.017 699.2 282.421C698.951 281.825 698.581 281.286 698.115 280.839C697.171 279.801 696.005 278.988 694.704 278.462C693.106 277.843 691.381 277.625 689.679 277.827C688.082 278.026 686.467 278.026 684.871 277.827C683.561 277.462 682.218 277.226 680.862 277.12C679.623 277.021 678.378 277.169 677.197 277.555Z" fill="#FF9A6C"/>
<path d="M682.222 277.174C682.422 277.283 683.002 276.448 682.93 275.269C682.857 274.09 682.186 273.346 682.004 273.455C681.823 273.564 682.004 274.362 682.004 275.269C682.004 276.176 681.986 277.083 682.222 277.174Z" fill="#FF9A6C"/>
<path d="M673.804 284.721C677.394 285.064 681.015 284.782 684.508 283.887C685.777 283.471 687.112 283.298 688.445 283.379C689.477 283.607 690.388 284.207 691.003 285.066C691.538 285.92 692.01 286.812 692.418 287.733C692.481 286.634 692.167 285.546 691.529 284.649C690.876 283.593 689.833 282.836 688.626 282.544C687.186 282.376 685.726 282.518 684.345 282.962C678.594 284.268 673.804 284.467 673.804 284.721Z" fill="#FF9A6C"/>
<path d="M671.917 291.18C672.783 291.382 673.683 291.382 674.548 291.18C676.163 290.999 678.34 290.436 680.698 289.965C681.788 289.722 682.903 289.612 684.018 289.638C684.886 289.653 685.723 289.96 686.395 290.509C686.996 291.064 687.409 291.794 687.574 292.595C687.574 292.595 687.738 292.359 687.719 291.869C687.645 291.179 687.331 290.537 686.83 290.055C686.095 289.33 685.121 288.898 684.091 288.84C682.875 288.756 681.653 288.847 680.462 289.112C678.031 289.584 675.927 290.237 674.367 290.563C673.531 290.685 672.711 290.892 671.917 291.18Z" fill="#FF9A6C"/>
<path d="M676.09 296.296C675.945 296.405 677.161 297.675 679.374 297.675L678.939 297.294C678.939 297.675 678.939 298.056 679.066 298.437C679.125 299.993 679.469 301.524 680.082 302.955C680.323 301.423 680.274 299.86 679.936 298.346L679.773 297.203V296.804H679.392C678.276 296.758 677.169 296.588 676.09 296.296Z" fill="#FF9A6C"/>
<path d="M764.461 291.997C764.461 291.997 788.463 297.802 788.409 329.642C788.354 361.481 781.152 377.193 781.152 377.193L736.903 353.045L746.845 328.317L764.461 291.997Z" fill="#455A64"/>
<path d="M781.152 377.193C780.834 377.1 780.529 376.966 780.245 376.794L777.669 375.487L768.235 370.516L736.686 353.517L736.323 353.336L736.468 352.955L738.845 346.75C741.675 339.402 744.287 332.399 746.827 326.032C748.061 322.857 749.222 319.827 750.329 316.96C751.294 314.298 752.465 311.714 753.83 309.232C755.653 305.519 758.402 302.338 761.813 299.997C762.77 299.398 763.827 298.974 764.933 298.746C765.214 298.685 765.499 298.649 765.786 298.637H766.094C764.643 298.939 763.259 299.504 762.012 300.306C758.739 302.7 756.124 305.883 754.411 309.558C753.107 312.032 751.985 314.596 751.054 317.233C749.984 320.081 748.841 323.111 747.625 326.304L739.715 347.058L737.339 353.263L737.121 352.683L768.616 369.972L777.905 375.197L780.39 376.648C780.663 376.801 780.919 376.984 781.152 377.193Z" fill="#263238"/>
</svg>
