<svg width="902" height="902" viewBox="0 0 902 902" fill="none" xmlns="http://www.w3.org/2000/svg">
<path d="M298.003 136.653C298.003 136.653 161.314 206.305 93.1408 313.625C24.9676 420.945 30.3616 558.969 113.201 661.4C196.041 763.832 354.378 750.464 486.954 815.408C619.53 880.352 765.798 866.966 828.487 729.429C891.176 591.892 796.647 540.424 780.411 381.293C764.175 222.163 620.703 -10.8241 298.003 136.653Z" fill="#0B8FAC"/>
<path opacity="0.7" d="M298.003 136.653C298.003 136.653 161.314 206.305 93.1408 313.625C24.9676 420.945 30.3616 558.969 113.201 661.4C196.041 763.832 354.378 750.464 486.954 815.408C619.53 880.352 765.798 866.966 828.487 729.429C891.176 591.892 796.647 540.424 780.411 381.293C764.175 222.163 620.703 -10.8241 298.003 136.653Z" fill="white"/>
<path d="M842.829 493.394H835.343V492.113C835.338 488.617 833.947 485.266 831.475 482.793C829.003 480.321 825.651 478.931 822.155 478.926H817.086C813.587 478.926 810.231 480.315 807.755 482.787C805.279 485.26 803.886 488.614 803.881 492.113V493.394H796.412C795.414 493.391 794.425 493.586 793.503 493.967C792.58 494.348 791.742 494.907 791.037 495.613C790.331 496.319 789.772 497.157 789.391 498.079C789.01 499.002 788.815 499.991 788.817 500.989V535.589C788.817 537.604 789.618 539.535 791.042 540.96C792.466 542.384 794.398 543.184 796.412 543.184H842.829C844.842 543.179 846.771 542.378 848.194 540.955C849.618 539.531 850.419 537.602 850.424 535.589V500.989C850.424 498.974 849.624 497.043 848.199 495.618C846.775 494.194 844.843 493.394 842.829 493.394ZM807.489 492.113C807.494 489.571 808.507 487.134 810.306 485.338C812.105 483.542 814.544 482.534 817.086 482.534H822.155C824.696 482.534 827.132 483.543 828.929 485.339C830.725 487.136 831.735 489.572 831.735 492.113V493.394H807.489V492.113Z" fill="#263238"/>
<path d="M833.449 514.753H823.888V505.21H815.337V514.753H805.775V523.322H815.337V532.865H823.888V523.322H833.449V514.753Z" fill="white"/>
<path d="M828.037 287.197C826.55 287.197 825.077 286.903 823.704 286.334C822.33 285.764 821.083 284.93 820.032 283.877C818.982 282.825 818.149 281.576 817.581 280.202C817.014 278.827 816.723 277.354 816.726 275.867V245.344C816.723 243.857 817.014 242.384 817.581 241.01C818.149 239.635 818.982 238.386 820.032 237.334C821.083 236.282 822.33 235.447 823.704 234.877C825.077 234.308 826.55 234.015 828.037 234.015C829.524 234.015 830.996 234.308 832.369 234.877C833.743 235.447 834.991 236.282 836.041 237.334C837.092 238.386 837.925 239.635 838.492 241.01C839.059 242.384 839.35 243.857 839.348 245.344V275.813C839.357 277.305 839.072 278.783 838.508 280.164C837.943 281.545 837.112 282.8 836.06 283.858C835.009 284.916 833.759 285.756 832.382 286.329C831.005 286.902 829.528 287.197 828.037 287.197Z" fill="white" stroke="#263238" stroke-linecap="round" stroke-linejoin="round"/>
<path d="M828.037 287.196C826.55 287.196 825.077 286.903 823.704 286.334C822.33 285.764 821.083 284.929 820.032 283.877C818.982 282.825 818.149 281.576 817.581 280.201C817.014 278.827 816.723 277.354 816.726 275.867V260.624H839.348V275.867C839.35 277.354 839.059 278.827 838.492 280.201C837.925 281.576 837.092 282.825 836.041 283.877C834.991 284.929 833.743 285.764 832.369 286.334C830.996 286.903 829.524 287.196 828.037 287.196Z" fill="#263238" stroke="#263238" stroke-linecap="round" stroke-linejoin="round"/>
<path d="M771.139 242.241C770.209 241.079 769.517 239.745 769.104 238.316C768.692 236.886 768.565 235.389 768.733 233.91C768.901 232.432 769.359 231.001 770.081 229.7C770.804 228.399 771.776 227.254 772.943 226.33L796.701 207.243C799.054 205.373 802.053 204.513 805.039 204.851C808.026 205.189 810.756 206.698 812.631 209.047C814.5 211.397 815.36 214.393 815.022 217.376C814.683 220.36 813.175 223.087 810.827 224.959L787.05 244.027C785.889 244.956 784.555 245.646 783.127 246.059C781.698 246.472 780.202 246.599 778.724 246.434C777.246 246.268 775.816 245.812 774.514 245.093C773.212 244.373 772.065 243.404 771.139 242.241Z" fill="white" stroke="#263238" stroke-linecap="round" stroke-linejoin="round"/>
<path d="M771.139 242.241C770.209 241.079 769.517 239.745 769.104 238.316C768.692 236.886 768.565 235.389 768.733 233.91C768.901 232.432 769.359 231.001 770.081 229.7C770.804 228.399 771.776 227.254 772.943 226.33L784.831 216.787L798.993 234.448L787.104 243.973C785.945 244.913 784.61 245.614 783.178 246.036C781.746 246.459 780.245 246.593 778.761 246.432C777.277 246.271 775.839 245.818 774.531 245.098C773.223 244.379 772.07 243.408 771.139 242.241Z" fill="#263238" stroke="#263238" stroke-linecap="round" stroke-linejoin="round"/>
<path d="M658.01 159.185C656.599 159.185 655.224 159.627 654.077 160.448L627.793 140.044C629.081 137.66 629.685 134.966 629.539 132.26C629.393 129.554 628.501 126.942 626.963 124.71L643.019 104.181C644.377 104.705 645.868 104.78 647.273 104.395C648.677 104.011 649.922 103.187 650.824 102.044C651.727 100.901 652.239 99.4988 652.287 98.0433C652.336 96.5878 651.916 95.1552 651.091 93.9552C650.266 92.7551 649.079 91.8507 647.703 91.3744C646.326 90.898 644.834 90.8748 643.443 91.308C642.053 91.7412 640.838 92.6081 639.976 93.7819C639.114 94.9556 638.65 96.3745 638.653 97.8308C638.645 99.2343 639.08 100.604 639.898 101.745L624.275 121.752C622.18 119.988 619.635 118.842 616.925 118.444C614.216 118.046 611.449 118.41 608.935 119.497C606.421 120.583 604.259 122.349 602.692 124.595C601.126 126.842 600.216 129.48 600.065 132.215H581.809C581.61 130.595 580.835 129.099 579.627 128.001C578.419 126.903 576.856 126.275 575.224 126.231C573.592 126.187 571.998 126.73 570.733 127.762C569.467 128.793 568.614 130.245 568.327 131.852C568.041 133.46 568.341 135.116 569.173 136.522C570.005 137.927 571.313 138.986 572.86 139.509C574.407 140.031 576.09 139.981 577.603 139.367C579.116 138.754 580.359 137.618 581.105 136.166H600.408C600.973 138.789 602.242 141.208 604.079 143.164C605.916 145.119 608.252 146.537 610.834 147.264C613.417 147.992 616.149 148.001 618.737 147.291C621.324 146.582 623.669 145.18 625.52 143.237L651.66 163.569C651.144 164.925 651.076 166.41 651.464 167.808C651.853 169.206 652.678 170.443 653.82 171.338C654.962 172.233 656.36 172.74 657.81 172.784C659.26 172.828 660.687 172.407 661.881 171.583C663.075 170.759 663.974 169.574 664.446 168.203C664.919 166.831 664.941 165.344 664.509 163.959C664.076 162.574 663.213 161.364 662.043 160.505C660.874 159.646 659.461 159.183 658.01 159.185Z" fill="#263238"/>
<path d="M124.079 287.413C121.894 287.408 119.8 286.538 118.255 284.993C116.71 283.448 115.84 281.354 115.835 279.169V210.617H132.324V279.169C132.324 281.355 131.455 283.452 129.909 284.998C128.363 286.544 126.266 287.413 124.079 287.413Z" fill="white" stroke="#263238" stroke-linecap="round" stroke-linejoin="round"/>
<path d="M124.079 287.413C121.894 287.408 119.8 286.538 118.255 284.993C116.71 283.448 115.84 281.354 115.835 279.169V237.009H132.324V279.169C132.324 281.355 131.455 283.452 129.909 284.998C128.363 286.544 126.266 287.413 124.079 287.413Z" fill="#263238" stroke="#263238" stroke-linecap="round" stroke-linejoin="round"/>
<path d="M134.687 206.612H113.49V212.619H134.687V206.612Z" fill="white" stroke="#263238" stroke-linecap="round" stroke-linejoin="round"/>
<path d="M99.0939 287.413C96.9088 287.408 94.8146 286.538 93.2696 284.993C91.7245 283.448 90.8544 281.354 90.8496 279.169V210.617H107.338V279.169C107.338 281.355 106.47 283.452 104.923 284.998C103.377 286.544 101.28 287.413 99.0939 287.413Z" fill="white" stroke="#263238" stroke-linecap="round" stroke-linejoin="round"/>
<path d="M99.0939 287.413C96.9088 287.408 94.8146 286.538 93.2696 284.993C91.7245 283.448 90.8544 281.354 90.8496 279.169V237.009H107.338V279.169C107.338 281.355 106.47 283.452 104.923 284.998C103.377 286.544 101.28 287.413 99.0939 287.413Z" fill="#263238" stroke="#263238" stroke-linecap="round" stroke-linejoin="round"/>
<path d="M109.702 206.612H88.5049V212.619H109.702V206.612Z" fill="white" stroke="#263238" stroke-linecap="round" stroke-linejoin="round"/>
<path d="M336.951 139.034L343.518 123.267C343.629 123.013 343.814 122.798 344.049 122.651C344.284 122.503 344.557 122.428 344.835 122.437C345.113 122.451 345.38 122.551 345.599 122.722C345.819 122.893 345.98 123.127 346.061 123.394L354.017 149.624L360.079 130.303C360.162 130.031 360.329 129.792 360.555 129.621C360.782 129.449 361.057 129.353 361.341 129.347C361.622 129.354 361.895 129.444 362.125 129.604C362.356 129.764 362.535 129.988 362.64 130.249L366.014 139.954H384.252C387.985 136.053 390.155 130.918 390.35 125.522C390.384 120.483 388.556 115.608 385.215 111.834C381.875 108.061 377.258 105.654 372.252 105.077C367.245 104.5 362.202 105.793 358.09 108.707C353.979 111.622 351.089 115.953 349.976 120.868C348.83 115.987 345.93 111.698 341.828 108.816C337.725 105.934 332.706 104.66 327.726 105.237C322.746 105.814 318.151 108.201 314.816 111.944C311.481 115.688 309.639 120.527 309.639 125.54C309.839 130.537 311.713 135.321 314.96 139.124L336.951 139.034Z" fill="#263238"/>
<path d="M365.058 142.66C364.777 142.661 364.503 142.575 364.274 142.413C364.044 142.252 363.87 142.023 363.777 141.758L361.432 135.011L355.28 154.621C355.192 154.897 355.019 155.138 354.786 155.31C354.553 155.482 354.271 155.575 353.981 155.577C353.691 155.576 353.409 155.48 353.178 155.304C352.946 155.129 352.779 154.882 352.7 154.603L344.564 127.777L339.152 140.91C339.049 141.156 338.877 141.365 338.655 141.513C338.434 141.66 338.174 141.739 337.908 141.74H317.144C321.599 146.719 327.156 151.121 331.305 155.216C337.583 161.422 343.735 167.844 350.139 173.833C358.347 165.733 366.609 157.597 374.745 149.497C377 147.242 379.454 145.005 381.727 142.66H365.058Z" fill="#263238"/>
<path d="M60.7383 545.878L69.584 548.947L79.1554 521.353L70.3097 518.285L60.7383 545.878Z" fill="white" stroke="#263238" stroke-miterlimit="10"/>
<path d="M56.5452 550.259L70.1973 554.995L72.0004 549.796L58.3483 545.061L56.5452 550.259Z" fill="white" stroke="#263238" stroke-miterlimit="10"/>
<path d="M60.5557 525.386L82.4229 532.971L99.7626 482.981L77.8954 475.396L60.5557 525.386Z" fill="white" stroke="#263238" stroke-miterlimit="10"/>
<path d="M71.1886 504.001L87.3291 509.6L96.9005 482.006L80.7601 476.407L71.1886 504.001Z" fill="#263238" stroke="#263238" stroke-miterlimit="10"/>
<path d="M68.334 524.004L77.1797 527.072L86.7511 499.478L77.9054 496.41L68.334 524.004Z" fill="#263238" stroke="#263238" stroke-miterlimit="10"/>
<path d="M59.0119 524.861L83.998 533.528L86.1677 527.273L61.1815 518.606L59.0119 524.861Z" fill="white" stroke="#263238" stroke-miterlimit="10"/>
<path d="M83.2276 474.354L96.249 478.871L99.14 470.537L86.1185 466.02L83.2276 474.354Z" fill="white" stroke="#263238" stroke-miterlimit="10"/>
<path d="M75.8048 476.43L100.791 485.097L102.961 478.842L77.9745 470.175L75.8048 476.43Z" fill="white" stroke="#263238" stroke-miterlimit="10"/>
<path d="M92.7617 467.146L103.225 436.947" stroke="#263238" stroke-miterlimit="10"/>
<path d="M674.516 842.467C726.653 842.467 768.919 832.937 768.919 821.18C768.919 809.424 726.653 799.893 674.516 799.893C622.378 799.893 580.112 809.424 580.112 821.18C580.112 832.937 622.378 842.467 674.516 842.467Z" fill="#263238" stroke="#263238" stroke-linecap="round" stroke-linejoin="round"/>
<path d="M601.725 340.018C601.725 340.018 588.952 347.829 589.097 351.257C589.241 354.684 584.334 417.193 583.775 425.004C583.216 432.815 575.783 448.943 575.206 456.267C574.629 463.592 576.469 470.934 578.615 474.307C580.762 477.681 588.646 488.469 588.646 488.469L609.843 455.726C610.362 448.576 610.471 441.403 610.167 434.241C609.843 418.636 601.725 340.018 601.725 340.018Z" fill="white" stroke="#263238" stroke-linecap="round" stroke-linejoin="round"/>
<path d="M683.284 185.126C683.284 185.126 660.734 183.683 647.889 199.324C635.045 214.964 637.805 238.885 637.715 246.228C637.625 253.57 615.814 275.092 618.232 283.859C620.649 292.627 627.071 293.619 625.015 300.943C622.958 308.267 609.536 312.669 611.485 321.96C613.433 331.25 620.505 344.419 620.505 344.419L750.393 345.303C750.393 345.303 755.029 331.629 750.086 321.364C745.143 311.099 738.125 307.708 739.262 302.819C740.399 297.93 746.676 286.204 744.259 277.419C741.842 268.633 733.435 266.198 732.551 250.557C731.667 234.917 729.358 209.065 716.947 196.437C704.535 183.809 683.284 185.126 683.284 185.126Z" fill="#263238" stroke="#263238" stroke-linecap="round" stroke-linejoin="round"/>
<path d="M643.343 787.861C639.354 795.547 634.513 802.76 628.911 809.364C620.613 818.655 612.567 823.544 612.838 828.433C613.108 833.322 631.22 834.278 640.8 830.85C650.379 827.422 657.342 820.585 659.273 820.026C661.203 819.467 666.597 820.026 666.723 813.171C666.849 806.316 665.803 786.796 665.803 786.796L643.343 787.861Z" fill="white" stroke="#263238" stroke-linecap="round" stroke-linejoin="round"/>
<path d="M640.763 830.85C650.36 827.422 657.306 820.585 659.236 820.026C661.166 819.467 666.56 820.026 666.687 813.171C666.687 809.563 666.488 802.347 666.236 796.448C664.816 799.11 662.715 801.347 660.148 802.932C657.581 804.516 654.639 805.392 651.623 805.468C651.623 805.468 651.443 802.04 646.211 796.195C642.838 792.371 639.428 795.383 637.444 797.999L635.838 800.416L635.712 800.651C633.629 803.723 631.352 806.657 628.893 809.436C620.594 818.727 612.549 823.616 612.819 828.505C613.09 833.394 631.184 834.277 640.763 830.85Z" fill="white" stroke="#263238" stroke-linecap="round" stroke-linejoin="round"/>
<path d="M710.181 787.824C715.029 795.538 720.65 802.737 726.958 809.31C736.249 818.582 744.818 823.453 744.998 828.342C745.179 833.231 727.247 834.205 717.289 830.796C707.331 827.386 699.646 820.549 697.68 820.062C695.713 819.575 690.337 820.062 689.489 813.243C688.642 806.424 687.577 786.868 687.577 786.868L710.181 787.824Z" fill="white" stroke="#263238" stroke-linecap="round" stroke-linejoin="round"/>
<path d="M717.361 830.795C707.421 827.386 699.718 820.549 697.752 820.062C695.785 819.575 690.409 820.062 689.562 813.243C689.111 809.635 688.605 802.419 688.227 796.501C689.895 799.147 692.187 801.342 694.901 802.896C697.615 804.45 700.669 805.314 703.795 805.413C703.795 805.413 703.615 801.986 708.179 796.123C711.155 792.316 714.89 795.311 717.199 797.927C717.794 798.72 718.407 799.514 719.003 800.344L719.165 800.578C721.59 803.645 724.179 806.578 726.922 809.364C736.213 818.636 744.782 823.507 744.962 828.396C745.143 833.285 727.319 834.205 717.361 830.795Z" fill="white" stroke="#263238" stroke-linecap="round" stroke-linejoin="round"/>
<path d="M604.106 530.015C604.106 530.015 607.119 631.598 611.124 651.622C615.129 671.647 633.007 786.417 633.007 786.417C638.471 788.729 644.356 789.884 650.289 789.809H669.826L671.63 704.335L672.298 580.274L682.093 790.278C682.093 790.278 709.009 791.234 711.914 790.747C714.818 790.26 717.235 789.773 717.235 789.773L734.536 656.908L744.44 568.512L744.981 533.352C744.981 533.352 662.285 530.484 638.256 528.536C614.227 526.587 604.341 526.1 604.341 526.1L604.106 530.015Z" fill="#0B8FAC" stroke="#263238" stroke-linecap="round" stroke-linejoin="round"/>
<path d="M715.773 709.369C715.557 711.064 715.34 712.634 715.088 714.077" stroke="#263238" stroke-linecap="round" stroke-linejoin="round"/>
<path d="M717.992 587.075C717.992 587.075 719.67 659.452 716.729 698.743" stroke="#263238" stroke-linecap="round" stroke-linejoin="round"/>
<path d="M629.326 581.267C629.326 581.267 631.401 629.145 633.457 639.879" stroke="#263238" stroke-linecap="round" stroke-linejoin="round"/>
<path d="M706.411 550.761V587.31C711.094 588.571 715.883 589.398 720.717 589.781C728.131 590.268 741.968 589.781 741.968 589.781L742.96 575.945L706.411 550.761Z" fill="#263238" stroke="#263238" stroke-linecap="round" stroke-linejoin="round"/>
<path d="M605.64 578.903C605.64 578.903 624.419 584.839 632.321 585.326C640.222 585.813 647.619 586.805 647.619 586.805L646.645 576.937L604.647 572.986L605.64 578.903Z" fill="#263238" stroke="#263238" stroke-linecap="round" stroke-linejoin="round"/>
<path d="M662.646 301.394L647.907 318.009L607.028 347.829L615.742 528.572C615.742 528.572 648.322 537.339 676.284 539.775C704.246 542.21 740.2 535.806 740.2 535.806L734.914 346.386C734.914 346.386 719.003 322.934 710.849 316.602C702.694 310.27 698.96 304.407 688.154 303.433C677.348 302.458 662.646 301.394 662.646 301.394Z" fill="#0B8FAC" stroke="#263238" stroke-linecap="round" stroke-linejoin="round"/>
<path d="M645.543 310.288L601.724 340.108L608.598 449.989L606.27 461.03L587.852 482.245L595.699 519.516L592.199 572.102C592.199 572.102 609.608 577.965 621.406 579.408C630.191 580.35 639.018 580.837 647.853 580.87L649.368 509.07C649.368 509.07 655.195 389.88 655.88 384.594C656.566 379.309 662.645 301.61 662.645 301.61L645.543 310.288Z" fill="white" stroke="#263238" stroke-linecap="round" stroke-linejoin="round"/>
<path d="M646.247 314.78L625.032 367.98L647.925 377.487L626.313 381.42L645.454 456.412" stroke="#263238" stroke-linecap="round" stroke-linejoin="round"/>
<path d="M658.966 287.232C658.966 287.232 666.579 338.015 672.568 349.741C678.557 361.467 680.253 365.364 680.253 365.364C680.253 365.364 693.278 325.784 695.894 319.921C698.51 314.058 701.306 293.059 701.306 293.059C701.306 293.059 675.346 301.376 658.966 287.232Z" fill="white" stroke="#263238" stroke-linecap="round" stroke-linejoin="round"/>
<path d="M658.966 287.232C658.966 287.232 659.651 291.851 660.77 298.616C664.576 301.52 674.661 308.7 682.111 309.079C687.794 309.368 695.01 305.687 699.808 302.747C700.674 297.425 701.27 293.059 701.27 293.059C701.27 293.059 675.346 301.376 658.966 287.232Z" fill="#263238" stroke="#263238" stroke-linecap="round" stroke-linejoin="round"/>
<path d="M648.629 252.127C648.629 252.127 643.433 244.73 639.934 252.127C636.434 259.523 645.346 270.473 647.835 271.971C654.907 276.174 653.031 268.363 653.031 268.363L648.629 252.127Z" fill="white" stroke="#263238" stroke-linecap="round" stroke-linejoin="round"/>
<path d="M713.157 255.32C713.157 255.32 717.541 247.671 721.835 254.887C726.128 262.103 718.389 273.45 716.08 275.055C709.477 279.62 710.523 271.79 710.523 271.79L713.157 255.32Z" fill="white" stroke="#263238" stroke-linecap="round" stroke-linejoin="round"/>
<path d="M647.402 245.596C647.402 245.596 666.236 241.195 675.725 235.584C681.538 232.074 686.606 227.459 690.644 222C690.644 222 698.798 237.406 705.978 243.648C713.158 249.89 714.655 250.251 714.655 250.251C714.655 250.251 711.21 277.22 707.313 286.601C703.417 295.982 690.698 305.11 678.828 302.476C672.081 300.997 660.391 296.126 657 287.918C653.608 279.71 647.402 245.596 647.402 245.596Z" fill="white" stroke="#263238" stroke-linecap="round" stroke-linejoin="round"/>
<path d="M695.461 266.324C689.616 266.468 670.042 266.504 659.94 260.407C655.891 258.049 652.1 255.274 648.629 252.126C648.99 253.93 649.423 256.185 649.892 258.531L652.093 260.136L657.613 280.99L655.033 281.55C655.577 283.682 656.234 285.783 656.999 287.846C660.391 296.054 672.081 300.925 678.828 302.404C690.68 305.02 703.362 295.946 707.295 286.583C706.367 284.764 706.093 282.681 706.519 280.684C707.656 274.785 709.063 264.448 709.063 264.448L713.086 260.84C713.302 259.523 713.483 258.26 713.663 257.106C708.792 260.479 699.664 266.216 695.461 266.324Z" fill="#0B8FAC" stroke="#263238" stroke-linecap="round" stroke-linejoin="round"/>
<path d="M673.975 257.611C673.975 257.611 667.679 249.962 659.417 250.665" stroke="#263238" stroke-linecap="round" stroke-linejoin="round"/>
<path d="M690.192 259.126C692.201 257.014 694.697 255.427 697.461 254.502C700.225 253.577 703.174 253.344 706.05 253.823" stroke="#263238" stroke-linecap="round" stroke-linejoin="round"/>
<path d="M655.791 246.841C655.791 246.841 664.811 243.233 672.803 244.929" stroke="#263238" stroke-linecap="round" stroke-linejoin="round"/>
<path d="M690.933 246.895C693.309 245.681 696.001 245.227 698.644 245.595C701.287 245.963 703.753 247.135 705.707 248.952" stroke="#263238" stroke-linecap="round" stroke-linejoin="round"/>
<path d="M667.913 255.104C667.954 255.381 667.94 255.663 667.871 255.935C667.802 256.207 667.681 256.462 667.513 256.687C667.346 256.911 667.135 257.101 666.894 257.244C666.653 257.387 666.387 257.481 666.109 257.521C665.545 257.457 665.026 257.182 664.657 256.749C664.289 256.317 664.098 255.761 664.125 255.194C664.082 254.916 664.094 254.633 664.162 254.36C664.229 254.087 664.351 253.831 664.519 253.606C664.687 253.381 664.898 253.191 665.14 253.049C665.382 252.907 665.65 252.814 665.929 252.776C666.492 252.844 667.008 253.121 667.376 253.552C667.744 253.983 667.935 254.537 667.913 255.104Z" fill="#263238"/>
<path d="M700.584 257.448C700.633 257.726 700.624 258.012 700.558 258.286C700.493 258.561 700.372 258.819 700.203 259.046C700.034 259.272 699.821 259.462 699.576 259.603C699.331 259.743 699.06 259.833 698.78 259.866C698.217 259.806 697.698 259.534 697.329 259.105C696.96 258.676 696.769 258.122 696.796 257.557C696.747 257.278 696.756 256.993 696.821 256.719C696.887 256.444 697.008 256.185 697.177 255.959C697.346 255.733 697.559 255.543 697.803 255.402C698.048 255.261 698.319 255.172 698.6 255.139C699.162 255.198 699.681 255.47 700.05 255.9C700.419 256.329 700.61 256.883 700.584 257.448Z" fill="#263238"/>
<path d="M749.166 329.663C749.166 329.663 759.683 334.533 763.598 342.291C767.513 350.048 798.812 434.096 798.668 440.446C798.523 446.796 788.168 454.121 778.463 455.113C768.757 456.105 754.614 438.516 752.503 435.593C750.393 432.671 750.014 398.467 750.014 398.467L749.166 329.663Z" fill="white" stroke="#263238" stroke-linecap="round" stroke-linejoin="round"/>
<path d="M699.592 307.221L704.715 475.245L706.519 581.23C716.342 583.646 726.406 584.947 736.52 585.109C744.956 585.285 753.344 583.789 761.198 580.707C761.198 580.707 758.132 514.771 757.59 504.019C757.049 493.267 753.477 472.756 753.477 472.756L749.22 329.662C749.22 329.662 709.586 311.117 699.592 307.221Z" fill="white" stroke="#263238" stroke-linecap="round" stroke-linejoin="round"/>
<path d="M710.849 316.493L729.015 375.755L712.455 380.247L728.564 388.058L708.468 451.901" fill="white"/>
<path d="M710.849 316.493L729.015 375.755L712.455 380.247L728.564 388.058L708.468 451.901" stroke="#263238" stroke-linecap="round" stroke-linejoin="round"/>
<path d="M723.512 370.704L700.98 478.655C700.98 478.655 716.387 483.526 727.644 484.067C738.901 484.608 762.353 484.536 762.353 484.536L785.805 383.909C785.805 383.909 739.64 379.489 723.512 370.704Z" fill="#263238" stroke="#263238" stroke-linecap="round" stroke-linejoin="round"/>
<path d="M731.36 471.313L732.1 437.578L749.978 441.348C749.978 441.348 738.161 467.38 731.36 471.313Z" fill="white" stroke="#263238" stroke-linecap="round" stroke-linejoin="round"/>
<path d="M745.052 425.383C745.052 425.383 740.29 418.564 738.756 417.084C737.223 415.605 729.646 411.24 728.185 411.24C726.723 411.24 718.876 410.752 717.361 410.752C715.845 410.752 714.132 414.18 715.683 415.641C717.234 417.103 722.628 417.59 722.628 417.59L726.327 423.002L709.64 421.54C709.64 421.54 706.861 424.481 707.493 426.952C707.965 428.627 708.568 430.261 709.297 431.841C709.233 435.428 709.42 439.014 709.856 442.575C710.505 445.516 713.464 446.49 717.523 448.925C721.582 451.36 735.166 449.899 735.166 449.899H741.444L745.052 425.383Z" fill="white" stroke="#263238" stroke-linecap="round" stroke-linejoin="round"/>
<path d="M785.733 428.774L742.437 422.947C742.437 422.947 739.063 450.801 735.654 460.074C732.244 469.346 731.36 471.313 731.36 471.313C731.36 471.313 776.731 470.302 787.429 469.328C798.126 468.354 804.134 461.986 803.665 453.2C803.196 444.415 797.838 435.611 797.838 435.611" fill="white"/>
<path d="M785.733 428.774L742.437 422.947C742.437 422.947 739.063 450.801 735.654 460.074C732.244 469.346 731.36 471.313 731.36 471.313C731.36 471.313 776.731 470.302 787.429 469.328C798.126 468.354 804.134 461.986 803.665 453.2C803.196 444.415 797.838 435.611 797.838 435.611" stroke="#263238" stroke-linecap="round" stroke-linejoin="round"/>
<path d="M605.189 459.19C605.189 459.19 615.291 465.522 617.817 467.488C620.342 469.455 620.559 482.137 622.164 484.572C623.77 487.008 621.876 488.487 618.953 488.487C616.031 488.487 611.611 479.214 611.611 479.214L611.431 475.787L590.793 482.642L585.381 473.369C585.381 473.369 591.514 459.19 605.189 459.19Z" fill="white" stroke="#263238" stroke-linecap="round" stroke-linejoin="round"/>
<path d="M454.843 842.468C506.98 842.468 549.246 832.937 549.246 821.181C549.246 809.424 506.98 799.894 454.843 799.894C402.705 799.894 360.439 809.424 360.439 821.181C360.439 832.937 402.705 842.468 454.843 842.468Z" fill="#263238" stroke="#263238" stroke-linecap="round" stroke-linejoin="round"/>
<path d="M528.573 315.321C528.573 315.321 540.948 377.433 543.149 388.924C545.35 400.416 549.391 427.729 553.973 439.707C558.555 451.686 557.058 467.02 554.767 471.331C552.469 475.078 549.83 478.605 546.883 481.867L531.513 461.824C531.513 461.824 522.367 363.614 522.024 349.706C521.681 335.797 528.573 315.321 528.573 315.321Z" fill="white" stroke="#263238" stroke-linecap="round" stroke-linejoin="round"/>
<path d="M536.726 459.371C536.726 459.371 546.468 465.45 548.182 468.03C549.895 470.61 551.122 473.893 549.787 476.689C548.452 479.485 541.182 487.928 539.342 489.57C537.502 491.211 535.95 484.663 535.734 479.034C535.517 473.406 536.726 459.371 536.726 459.371Z" fill="white" stroke="#263238" stroke-linecap="round" stroke-linejoin="round"/>
<path d="M484.339 799.966C484.339 799.966 514.88 814.813 516.811 817.699C518.741 820.586 511.777 824.428 493.575 824.428C475.373 824.428 474.831 822.029 467.597 820.117C460.363 818.205 445.949 819.63 444.001 815.318C442.053 811.007 445.444 796.16 445.444 796.16L484.339 799.966Z" fill="white" stroke="#263238" stroke-linecap="round" stroke-linejoin="round"/>
<path d="M443.785 807.633C443.785 807.633 469.041 822.967 466.822 828.235C464.603 833.502 446.346 833.502 436.731 832.059C427.116 830.616 406.676 817.627 405.594 812.901C404.512 808.174 407.218 800.922 422.028 799.497C436.839 798.072 443.785 807.633 443.785 807.633Z" fill="white" stroke="#263238" stroke-linecap="round" stroke-linejoin="round"/>
<path d="M520.454 557.075C520.454 557.075 506.022 668.22 503.514 684.51C501.007 700.8 493.051 726.669 488.758 746.315C486.324 757.869 484.518 769.546 483.346 781.294C482.907 784.636 482.986 788.025 483.58 791.343C484.194 796.141 484.284 799.966 484.284 799.966C477.86 801.578 471.322 802.699 464.728 803.321C456.592 803.808 445.57 803.808 445.57 803.808L441.962 772.671C441.962 772.671 444.65 726.669 446.237 713.266C447.825 699.862 449.521 594.454 449.449 591.568C449.376 588.681 448.745 563.299 448.745 563.299L497.904 558.031C497.904 558.031 504.615 538.873 514.699 539.829C524.784 540.785 520.454 557.075 520.454 557.075Z" fill="white" stroke="#263238" stroke-linecap="round" stroke-linejoin="round"/>
<path d="M514.772 539.829C504.688 538.873 497.977 558.031 497.977 558.031L448.764 563.299C448.764 563.299 448.926 570.046 449.088 576.973C454.338 577.442 459.191 577.713 463.34 577.713C479.107 577.687 494.862 576.802 510.533 575.061L512.643 552.98L515.945 575.476L518.218 574.736C519.625 564.021 520.527 557.039 520.527 557.039C520.527 557.039 524.856 540.785 514.772 539.829Z" fill="#263238" stroke="#263238" stroke-linecap="round" stroke-linejoin="round"/>
<path d="M397.422 560.431C397.422 560.431 397.422 561.116 397.53 562.361C398.198 575.458 402.166 651.352 403.375 665.351C404.728 680.685 397.963 697.444 398.306 711.335C398.649 725.226 401.914 800.453 401.914 800.453L405.522 812.9C405.522 812.9 414.001 807.164 422.137 807.164C430.273 807.164 443.785 807.633 443.785 807.633C443.785 807.633 444.488 797.566 444.416 794.229C444.344 790.892 444.037 778.895 444.037 778.895C444.037 778.895 457.802 716.134 458.632 710.866C459.461 705.599 470.141 614.569 470.069 611.646C469.997 608.724 472.324 568.044 472.324 568.044L397.422 560.431Z" fill="white" stroke="#263238" stroke-linecap="round" stroke-linejoin="round"/>
<path d="M471.819 577.623C472.126 572.066 472.342 568.098 472.342 568.098L397.422 560.431C397.422 560.431 397.422 561.116 397.53 562.361C397.53 563.948 397.729 566.456 397.909 569.577C415.426 572.716 445.823 577.659 463.34 577.659C466.226 577.713 469.041 577.677 471.819 577.623Z" fill="#263238" stroke="#263238" stroke-linecap="round" stroke-linejoin="round"/>
<path d="M452.623 266.27C452.623 266.27 444.704 267.605 441.691 271.141C438.672 274.58 435.956 278.274 433.573 282.182C433.158 283.517 386.579 311.785 386.579 311.785L389.934 446.58C389.934 446.58 391.323 467.344 388.852 474.416C384.677 488.32 382.651 502.781 382.845 517.297C383.278 534.525 384.396 562.397 384.396 562.397C384.396 562.397 437.704 573.005 463.339 573.005C479.107 572.967 494.861 572.07 510.532 570.317L512.642 548.218L515.854 570.768L526.804 567.16L535.824 500.412C535.824 500.412 542.102 486.268 542.03 483.165C541.957 480.062 543.617 476.094 541.795 473.442C539.973 470.79 536.726 465.486 536.726 465.486C536.726 465.486 528.572 319.308 528.572 315.321C528.572 311.334 504.452 287.936 502.666 287.052C500.88 286.169 489.876 269.806 475.606 265.404C461.337 261.003 452.623 266.27 452.623 266.27Z" fill="white" stroke="#263238" stroke-linecap="round" stroke-linejoin="round"/>
<path d="M438.102 286.602L432.762 335.147L454.698 345.34L449.214 361.81L504.074 458.216" stroke="#263238" stroke-linecap="round" stroke-linejoin="round"/>
<path d="M499.384 292.05L515.836 330.457L508.783 339.856L520.545 356.308L515.836 462.131" stroke="#263238" stroke-linecap="round" stroke-linejoin="round"/>
<path d="M450.585 272.909C450.985 282.38 452.703 291.749 455.69 300.745C460.435 314.004 491.879 405.485 491.879 405.485L512.21 477.068C512.21 477.068 509.522 404.15 509.449 401.065C509.377 397.98 494.043 296.758 494.043 296.758C494.043 296.758 491.428 280.414 487.296 274.226C483.165 268.038 455.474 256.547 450.585 272.909Z" fill="#0B8FAC" stroke="#263238" stroke-linecap="round" stroke-linejoin="round"/>
<path d="M448.637 265.837C448.637 265.837 435.847 267.154 438.102 286.601C440.357 306.049 443.333 319.308 443.333 319.308" stroke="#263238" stroke-width="2" stroke-linecap="round" stroke-linejoin="round"/>
<path d="M441.764 344.943C441.764 344.943 447.176 367.475 450.874 373.663C454.572 379.85 465.757 386.038 473.712 386.038" stroke="#263238" stroke-linecap="round" stroke-linejoin="round"/>
<path d="M458.866 339.639C458.866 339.639 464.819 365.707 465.811 370.578C466.803 375.449 463.52 384.703 458 394.03" stroke="#263238" stroke-linecap="round" stroke-linejoin="round"/>
<path d="M456.413 397.115C455.845 396.802 455.423 396.278 455.241 395.656C455.058 395.034 455.129 394.365 455.438 393.795L456.07 392.641C456.225 392.365 456.434 392.123 456.684 391.929C456.934 391.734 457.22 391.592 457.526 391.51C457.832 391.427 458.151 391.407 458.464 391.449C458.778 391.492 459.08 391.596 459.353 391.757C459.921 392.07 460.343 392.593 460.528 393.214C460.714 393.835 460.648 394.503 460.345 395.076L459.714 396.213C459.558 396.491 459.349 396.735 459.098 396.931C458.847 397.128 458.56 397.272 458.252 397.356C457.945 397.44 457.624 397.462 457.308 397.42C456.992 397.379 456.688 397.275 456.413 397.115Z" fill="#263238"/>
<path d="M476.671 386.525C476.671 386.844 476.607 387.158 476.483 387.451C476.359 387.744 476.177 388.009 475.947 388.229C475.718 388.45 475.447 388.622 475.15 388.735C474.853 388.849 474.536 388.901 474.218 388.889H472.901C472.252 388.874 471.634 388.605 471.182 388.139C470.729 387.674 470.479 387.048 470.483 386.399C470.481 386.082 470.543 385.767 470.665 385.475C470.787 385.182 470.968 384.917 471.195 384.696C471.423 384.475 471.693 384.303 471.989 384.189C472.286 384.076 472.602 384.024 472.919 384.036H474.236C474.885 384.055 475.502 384.325 475.956 384.789C476.41 385.253 476.667 385.876 476.671 386.525Z" fill="#263238"/>
<path d="M441.8 346.711L438.769 327.499C438.431 325.518 438.86 323.482 439.969 321.807C441.078 320.131 442.785 318.941 444.74 318.479C446.848 317.999 449.059 318.355 450.909 319.472C452.759 320.589 454.105 322.38 454.662 324.468L459.84 343.59" stroke="#263238" stroke-width="2" stroke-linecap="round" stroke-linejoin="round"/>
<path d="M513.11 359.696C517.452 359.261 520.565 354.85 520.064 349.843C519.563 344.837 515.636 341.131 511.294 341.566C506.952 342.001 503.838 346.412 504.34 351.418C504.841 356.425 508.768 360.131 513.11 359.696Z" fill="white" stroke="#263238" stroke-linecap="round" stroke-linejoin="round"/>
<path d="M490.923 273.938C490.923 273.938 508.295 298.382 513.834 348.208" stroke="#263238" stroke-width="2" stroke-linecap="round" stroke-linejoin="round"/>
<path d="M514.295 353.977C516.666 353.756 518.379 351.334 518.122 348.566C517.865 345.798 515.734 343.733 513.363 343.954C510.992 344.174 509.279 346.596 509.536 349.364C509.793 352.132 511.924 354.197 514.295 353.977Z" fill="white" stroke="#263238" stroke-linecap="round" stroke-linejoin="round"/>
<path d="M539.685 463.177C538.619 466.479 537.746 469.841 537.069 473.244C537.069 474.687 536.727 478.999 533.353 478.024C529.98 477.05 530.99 459.822 531.423 457.91C531.856 455.997 540.064 462.185 540.064 462.185" fill="white"/>
<path d="M539.685 463.177C538.619 466.479 537.746 469.841 537.069 473.244C537.069 474.687 536.727 478.999 533.353 478.024C529.98 477.05 530.99 459.822 531.423 457.91C531.856 455.997 540.064 462.185 540.064 462.185" stroke="#263238" stroke-linecap="round" stroke-linejoin="round"/>
<path d="M430.182 447.916C433.183 449.568 436.536 450.477 439.96 450.567C445.264 450.567 454.951 448.763 458.505 449.683C462.059 450.604 471.133 462.041 471.133 462.041C471.133 462.041 473.839 464.693 472.558 466.028C471.277 467.363 468.662 469.636 466.858 468.229C465.054 466.821 456.034 459.389 456.034 459.389L433.285 468.68L423.94 463.809L430.182 447.916Z" fill="white" stroke="#263238" stroke-linecap="round" stroke-linejoin="round"/>
<path d="M395.347 308.701C395.347 308.701 380.356 310.505 377.812 314.437C375.268 318.37 334.191 408.57 334.281 412.557C334.372 416.544 416.418 481.109 416.418 481.109L434.133 447.392L389.809 406.297L409.039 361.666" fill="white"/>
<path d="M395.347 308.701C395.347 308.701 380.356 310.505 377.812 314.437C375.268 318.37 334.191 408.57 334.281 412.557C334.372 416.544 416.418 481.109 416.418 481.109L434.133 447.392L389.809 406.297L409.039 361.666" stroke="#263238" stroke-linecap="round" stroke-linejoin="round"/>
<path d="M423.002 497.399L466.334 498.283L466.118 471.331" stroke="#263238" stroke-linecap="round" stroke-linejoin="round"/>
<path d="M433.339 468.679L421.884 472.955" stroke="#263238" stroke-linecap="round" stroke-linejoin="round"/>
<path d="M446.4 246.824C446.4 246.824 451.325 285.285 454.572 291.022C457.819 296.758 480.91 319.741 480.91 319.741C480.91 319.741 488.126 293.241 488.938 287.053C489.75 280.865 490.381 256.114 490.381 256.114L446.31 243.739L446.4 246.824Z" fill="white" stroke="#263238" stroke-linecap="round" stroke-linejoin="round"/>
<path d="M446.4 246.824C446.4 246.824 446.977 251.334 447.861 257.485C451.315 260.702 455.262 263.345 459.551 265.315C465.234 267.822 480.387 269.229 489.966 268.111C490.219 261.634 490.381 256.114 490.381 256.114L446.31 243.739L446.4 246.824Z" fill="#263238" stroke="#263238" stroke-linecap="round" stroke-linejoin="round"/>
<path d="M433.628 213.251C433.628 213.251 427.729 207.063 424.806 214.117C421.884 221.171 428.414 231.796 431.896 232.247C433.962 232.517 436.061 232.363 438.065 231.796C438.065 231.796 440.537 241.971 442.81 245.056C447.284 250.712 453.016 255.246 459.551 258.297C467.597 261.905 494.531 263.186 497.94 258.297C501.35 253.408 501.151 227.358 501.097 225.158C501.043 222.957 500.664 191.459 500.664 191.459C500.664 191.459 503.082 180.527 499.798 173.004C496.515 165.481 463.556 154.964 455.276 159.312C446.995 163.659 437.452 171.236 436.803 180.96C436.153 190.683 436.55 206.594 436.55 206.594L433.628 213.251Z" fill="white" stroke="#263238" stroke-linecap="round" stroke-linejoin="round"/>
<path d="M482.336 199.541C482.336 199.541 487.838 224.797 486.575 227.827C485.313 230.858 481.362 230.912 476.419 228.26C471.476 225.608 474.056 222.072 474.056 222.072" stroke="#263238" stroke-linecap="round" stroke-linejoin="round"/>
<path d="M463.177 228.711C463.177 228.711 465.558 235.332 469.978 235.783C474.398 236.234 485.492 237.1 485.492 237.1" stroke="#263238" stroke-linecap="round" stroke-linejoin="round"/>
<path d="M447.393 200.425L448.096 211.032C448.096 211.032 452.137 213.251 461.41 213.251C470.682 213.251 473.731 211.032 473.731 211.032L473.478 200.425C473.478 200.425 460.021 192.469 447.393 200.425Z" stroke="#263238" stroke-linecap="round" stroke-linejoin="round"/>
<path d="M482.372 200.424L485.727 211.483C485.727 211.483 487.099 213.287 496.389 213.287C505.68 213.287 508.728 211.068 508.728 211.068L508.458 200.461C508.458 200.461 494.982 192.469 482.372 200.424Z" stroke="#263238" stroke-linecap="round" stroke-linejoin="round"/>
<path d="M473.532 200.425H482.372" stroke="#263238" stroke-linecap="round" stroke-linejoin="round"/>
<path d="M447.446 200.425L430.02 210.599" stroke="#263238" stroke-linecap="round" stroke-linejoin="round"/>
<path d="M451.74 195.121C451.74 195.121 456.467 189.817 467.182 194.237" stroke="#263238" stroke-linecap="round" stroke-linejoin="round"/>
<path d="M483.995 195.121C485.586 193.844 487.506 193.043 489.533 192.81C491.56 192.577 493.611 192.922 495.451 193.804" stroke="#263238" stroke-linecap="round" stroke-linejoin="round"/>
<path d="M463.033 205.296C463.033 207.244 462.329 208.904 461.355 208.904C460.381 208.904 459.551 207.316 459.551 205.296C459.551 203.275 460.254 201.688 461.247 201.688C462.239 201.688 462.996 203.329 463.033 205.296Z" fill="#263238"/>
<path d="M491.32 204.844C491.32 206.793 490.616 208.452 489.642 208.452C488.668 208.452 487.838 206.865 487.838 204.844C487.838 202.824 488.541 201.236 489.516 201.236C490.49 201.236 491.265 202.896 491.32 204.844Z" fill="#263238"/>
<path d="M461.049 163.966C461.049 163.966 465.306 173.365 460.02 176.792C458.389 177.736 456.538 178.233 454.653 178.233C452.769 178.233 450.918 177.736 449.286 176.792C450.692 178.733 451.477 181.054 451.538 183.45C451.599 185.846 450.934 188.204 449.629 190.214C447.038 194.531 444.016 198.575 440.609 202.283C440.609 202.283 441.565 213.702 439.581 215.037C437.597 216.372 432.185 214.369 432.094 211.014C432.004 207.659 429.839 200.948 429.749 197.592C429.659 194.237 428.107 185.505 428.107 185.505C428.107 185.505 414.541 179.462 421.739 172.084C428.937 164.705 444.217 158.662 444.217 158.662C444.217 158.662 444.56 145.24 453.851 141.217C463.141 137.194 483.129 131.151 483.292 137.862C483.546 141.316 482.926 144.778 481.488 147.928C481.488 147.928 498.247 147.261 509.937 158.752C521.627 170.244 521.23 180.905 515.187 180.905C509.143 180.905 507.177 182.24 507.177 182.24C507.177 182.24 518.74 188.951 512.787 192.307C506.834 195.662 500.7 191.639 500.7 191.639C500.7 191.639 503.262 186.949 495.721 180.815C488.181 174.681 461.049 163.966 461.049 163.966Z" fill="#263238" stroke="#263238" stroke-linecap="round" stroke-linejoin="round"/>
<path d="M232.139 842.468C284.276 842.468 326.542 832.937 326.542 821.181C326.542 809.424 284.276 799.894 232.139 799.894C180.001 799.894 137.735 809.424 137.735 821.181C137.735 832.937 180.001 842.468 232.139 842.468Z" fill="#263238" stroke="#263238" stroke-linecap="round" stroke-linejoin="round"/>
<path d="M294.305 380.879V398.125L319.38 409.616C319.38 409.616 321.996 398.125 319.903 377.74L294.305 380.879Z" fill="#999999" stroke="#263238" stroke-linecap="round" stroke-linejoin="round"/>
<path d="M169.847 794.734C164.107 799.661 158.685 804.945 153.611 810.555C146.395 818.691 144.988 826.791 151.699 830.67C158.409 834.549 168.945 833.538 180.436 826.358C191.928 819.179 191.459 816.292 198.17 813.911C204.88 811.53 209.192 806.695 209.192 799.046C209.192 791.397 184.748 790.423 179.48 790.026C174.212 789.629 169.847 794.734 169.847 794.734Z" fill="white" stroke="#263238" stroke-linecap="round" stroke-linejoin="round"/>
<path d="M209.138 799.046C209.138 799.046 198.314 803.845 193.064 808.21C187.815 812.576 177.352 828.289 165.12 828.289C158.892 828.294 152.766 826.698 147.333 823.652C147.341 825.105 147.747 826.527 148.507 827.764C149.268 829.002 150.353 830.007 151.645 830.67C158.355 834.494 168.891 833.538 180.382 826.358C191.874 819.179 191.405 816.292 198.116 813.911C204.826 811.53 209.138 806.713 209.138 799.046Z" stroke="#263238" stroke-linecap="round" stroke-linejoin="round"/>
<path d="M291.418 794.734C297.158 799.661 302.581 804.945 307.654 810.555C314.87 818.691 316.278 826.791 309.567 830.67C302.856 834.549 292.32 833.538 280.829 826.358C269.338 819.179 269.807 816.292 263.096 813.911C256.385 811.53 252.073 806.695 252.073 799.046C252.073 791.397 276.517 790.423 281.785 790.026C287.053 789.629 291.418 794.734 291.418 794.734Z" fill="white" stroke="#263238" stroke-linecap="round" stroke-linejoin="round"/>
<path d="M252.127 799.046C252.127 799.046 262.951 803.845 268.201 808.21C273.45 812.576 283.913 828.289 296.145 828.289C302.373 828.294 308.499 826.698 313.932 823.652C313.924 825.105 313.518 826.527 312.758 827.764C311.997 829.002 310.912 830.007 309.62 830.67C302.91 834.494 292.374 833.538 280.883 826.358C269.391 819.179 269.86 816.292 263.149 813.911C256.439 811.53 252.127 806.713 252.127 799.046Z" stroke="#263238" stroke-linecap="round" stroke-linejoin="round"/>
<path d="M155.956 522.619C155.956 522.619 158.824 630.408 160.268 646.229C161.711 662.05 165.968 697.968 165.968 699.952C165.968 701.937 168.35 781.403 168.35 781.403L164.038 788.619L165.481 798.685L184.64 802.51C194.219 804.422 206.685 807.308 208.597 805.396C210.509 803.484 210.996 799.641 211.952 794.374C212.908 789.106 214.821 779.509 212.908 771.86C210.996 764.211 215.308 682.742 215.795 680.83C216.282 678.918 227.304 600.227 227.304 600.227C227.304 600.227 234.52 664.919 239.752 684.546C244.983 704.174 243.107 733.417 245.02 744.908C246.932 756.4 250.774 795.222 251.261 798.09C251.748 800.958 252.687 805.306 252.687 805.306C252.687 805.306 276.644 801.951 280.955 800.02C285.327 798.41 289.813 797.131 294.377 796.196C294.377 796.196 295.802 768.883 293.89 757.861C292.497 750.116 291.694 742.276 291.491 734.409C291.491 731.053 293.89 624.708 293.89 624.708L291.491 521.699C291.491 521.699 226.817 528.41 201.904 523.611C176.991 518.813 156.443 515.944 156.443 515.944L155.956 522.619Z" fill="#0B8FAC" stroke="#263238" stroke-linecap="round" stroke-linejoin="round"/>
<path d="M201.94 523.575C177.027 518.795 156.443 515.944 156.443 515.944L155.956 522.637C155.956 522.637 156.118 528.825 156.389 538.422C167.808 541.615 191.008 547.226 213.431 547.226C237.136 547.226 274.894 540.01 291.887 536.564L291.527 521.681C291.527 521.681 226.853 528.374 201.94 523.575Z" fill="#263238" stroke="#263238" stroke-linecap="round" stroke-linejoin="round"/>
<path d="M285.158 766.321C285.465 769.623 285.663 771.517 285.663 771.517" stroke="#263238" stroke-linecap="round" stroke-linejoin="round"/>
<path d="M277.816 547.911C277.816 547.911 279.62 640.492 279.62 675.436C279.62 699.609 282.543 736.303 284.347 756.616" stroke="#263238" stroke-linecap="round" stroke-linejoin="round"/>
<path d="M180.852 542.679L185.217 643.126" stroke="#263238" stroke-linecap="round" stroke-linejoin="round"/>
<path d="M184.333 650.974V667.57" stroke="#263238" stroke-linecap="round" stroke-linejoin="round"/>
<path d="M207.046 269.59C204.687 269.602 202.365 270.177 200.273 271.265C198.18 272.354 196.377 273.926 195.013 275.85C192.03 279.786 188.71 283.456 185.091 286.818L142.246 309.819L146.431 473.37L148.001 529.294C148.001 529.294 180.906 540.262 212.259 540.262C243.613 540.262 299.519 527.634 299.519 527.634C299.519 527.634 294.828 309.747 296.398 309.747C297.967 309.747 265.568 281.604 250.937 274.208C236.307 266.812 207.046 269.59 207.046 269.59Z" fill="#0B8FAC" stroke="#263238" stroke-linecap="round" stroke-linejoin="round"/>
<path d="M194.832 289.362C194.832 289.362 211.429 319.94 218.428 333.921C225.428 347.902 238.489 368.016 238.489 368.016L260.335 309.494" stroke="#263238" stroke-linecap="round" stroke-linejoin="round"/>
<path d="M207.099 483.31L206.252 458.902L156.948 456.033C156.948 456.033 157.435 491.969 158.391 493.917" stroke="#263238" stroke-linecap="round" stroke-linejoin="round"/>
<path d="M207.694 500.592L207.46 493.737" stroke="#263238" stroke-linecap="round" stroke-linejoin="round"/>
<path d="M266.144 496.749L264.701 456.52C264.701 456.52 281.947 457.945 296.325 448.366" stroke="#263238" stroke-linecap="round" stroke-linejoin="round"/>
<path d="M192.217 360.656C193.732 365.437 198.35 368.251 202.517 366.916C206.685 365.581 208.795 360.62 207.262 355.839C205.729 351.059 201.128 348.244 196.961 349.579C192.794 350.914 190.683 355.875 192.217 360.656Z" stroke="#263238" stroke-linecap="round" stroke-linejoin="round"/>
<path d="M192.703 276.95C192.703 276.95 187.165 298.237 199.757 356.02" stroke="#263238" stroke-width="2" stroke-linecap="round" stroke-linejoin="round"/>
<path d="M203.636 358.004C203.265 358.752 202.687 359.378 201.97 359.808C201.254 360.238 200.429 360.453 199.594 360.428C198.759 360.402 197.948 360.138 197.259 359.666C196.569 359.194 196.03 358.534 195.704 357.765C195.379 356.996 195.281 356.149 195.422 355.325C195.564 354.502 195.938 353.736 196.502 353.119C197.065 352.503 197.794 352.06 198.601 351.845C199.409 351.63 200.261 351.651 201.056 351.906C202.202 352.378 203.116 353.283 203.599 354.425C204.082 355.566 204.095 356.852 203.636 358.004Z" stroke="#263238" stroke-linecap="round" stroke-linejoin="round"/>
<path d="M294.305 306.68C294.305 306.68 302.134 312.435 302.658 314.528C303.181 316.62 329.826 380.356 329.826 380.356L291.166 386.056L291.689 348.425" fill="#0B8FAC"/>
<path d="M294.305 306.68C294.305 306.68 302.134 312.435 302.658 314.528C303.181 316.62 329.826 380.356 329.826 380.356L291.166 386.056L291.689 348.425" stroke="#263238" stroke-linecap="round" stroke-linejoin="round"/>
<path d="M147.477 307.727C147.477 307.727 138.584 308.773 136.491 315.556C134.398 322.339 119.263 391.324 119.263 391.324L174.645 386.056L169.414 334.318" fill="#0B8FAC"/>
<path d="M147.477 307.727C147.477 307.727 138.584 308.773 136.491 315.556C134.398 322.339 119.263 391.324 119.263 391.324L174.645 386.056L169.414 334.318" stroke="#263238" stroke-linecap="round" stroke-linejoin="round"/>
<path d="M254.454 273.703C254.454 273.703 268.183 281.532 269.536 301.016C270.889 320.499 269.536 325.442 269.536 325.442" stroke="#263238" stroke-width="2" stroke-linecap="round" stroke-linejoin="round"/>
<path d="M275.741 350.391C275.741 350.391 274.514 373.428 272.007 380.085C269.499 386.742 259.577 394.625 251.712 395.888" stroke="#263238" stroke-linecap="round" stroke-linejoin="round"/>
<path d="M257.972 347.901C257.972 347.901 256.872 374.474 256.763 379.417C256.655 384.36 261.634 392.965 268.778 401.21" stroke="#263238" stroke-linecap="round" stroke-linejoin="round"/>
<path d="M270.827 404.104L271.037 403.934C272.02 403.137 272.17 401.694 271.373 400.711L270.362 399.464C269.565 398.481 268.122 398.331 267.139 399.128L266.929 399.298C265.947 400.095 265.796 401.538 266.593 402.521L267.604 403.768C268.401 404.751 269.844 404.901 270.827 404.104Z" fill="#263238"/>
<path d="M248.888 396.73L248.939 396.996C249.174 398.239 250.373 399.056 251.616 398.821L253.194 398.522C254.437 398.286 255.254 397.087 255.018 395.844L254.968 395.578C254.732 394.335 253.533 393.518 252.29 393.754L250.713 394.053C249.47 394.288 248.653 395.487 248.888 396.73Z" fill="#263238"/>
<path d="M276.013 352.141L275.489 332.784C275.441 330.765 274.641 328.836 273.247 327.375C271.852 325.914 269.963 325.025 267.949 324.882C265.809 324.723 263.693 325.417 262.064 326.813C260.434 328.209 259.424 330.194 259.253 332.333L257.63 351.96" stroke="#263238" stroke-width="2" stroke-linecap="round" stroke-linejoin="round"/>
<path d="M320.95 396.555L308.484 393.94L264.593 386.633L203.04 374.907L188.446 368.467C188.446 368.467 174.645 350.427 173.455 348.623C172.264 346.819 156.66 353.115 157.219 355.514C157.778 357.914 159.618 381.889 160.827 383.404C162.035 384.92 175.511 384.902 175.511 384.902C175.511 384.902 239.806 415.93 242.476 417.067C279.584 432.708 297.48 432.563 303.812 433.592C310.144 434.62 314.275 432.058 317.919 427.873C321.563 423.688 320.95 396.555 320.95 396.555Z" fill="#999999" stroke="#263238" stroke-linecap="round" stroke-linejoin="round"/>
<path d="M171.578 348.371C171.578 348.371 164.092 348.677 152.997 356.164C148.866 358.96 146.701 360.963 146.701 362.171C146.938 363.609 147.343 365.014 147.91 366.356C155.103 362.893 162.636 360.184 170.388 358.275" fill="#999999"/>
<path d="M171.578 348.371C171.578 348.371 164.092 348.677 152.997 356.164C148.866 358.96 146.701 360.963 146.701 362.171C146.938 363.609 147.343 365.014 147.91 366.356C155.103 362.893 162.636 360.184 170.388 358.275" stroke="#263238" stroke-linecap="round" stroke-linejoin="round"/>
<path d="M174.573 367.565C174.573 367.565 154.206 372.652 150.904 373.266C147.603 373.879 147.008 370.56 147.008 369.369C147.008 368.178 147.91 366.356 151.5 364.57C155.09 362.784 173.148 357.968 173.148 357.968" fill="#999999"/>
<path d="M174.573 367.565C174.573 367.565 154.206 372.652 150.904 373.266C147.603 373.879 147.008 370.56 147.008 369.369C147.008 368.178 147.91 366.356 151.5 364.57C155.09 362.784 173.148 357.968 173.148 357.968" stroke="#263238" stroke-linecap="round" stroke-linejoin="round"/>
<path d="M176.684 376.856C176.684 376.856 152.998 379.255 151.194 377.758C150.642 377.157 150.223 376.446 149.965 375.672C149.707 374.898 149.616 374.078 149.697 373.266L170.984 368.756" fill="#999999"/>
<path d="M176.684 376.856C176.684 376.856 152.998 379.255 151.194 377.758C150.642 377.157 150.223 376.446 149.965 375.672C149.707 374.898 149.616 374.078 149.697 373.266L170.984 368.756" stroke="#263238" stroke-linecap="round" stroke-linejoin="round"/>
<path d="M170.081 378.046L151.807 378.948C151.807 378.948 152.691 381.654 153.611 381.943C157.94 383.012 162.351 383.718 166.798 384.054C169.714 384.149 172.62 384.451 175.493 384.956" fill="#999999"/>
<path d="M170.081 378.046L151.807 378.948C151.807 378.948 152.691 381.654 153.611 381.943C157.94 383.012 162.351 383.718 166.798 384.054C169.714 384.149 172.62 384.451 175.493 384.956" stroke="#263238" stroke-linecap="round" stroke-linejoin="round"/>
<path d="M130.754 390.278C130.754 390.278 139.106 426.358 141.199 428.955C143.292 431.553 160.538 428.955 177.784 423.724C195.03 418.492 268.183 387.157 268.183 387.157L278.628 389.231C278.628 389.231 274.443 376.17 267.136 375.647C259.83 375.124 174.645 386.056 174.645 386.056L130.754 390.278Z" fill="#999999" stroke="#263238" stroke-linecap="round" stroke-linejoin="round"/>
<path d="M203.853 246.589C203.853 246.589 203.853 247.365 203.853 248.682C204.015 255.555 204.682 277.383 206.432 282.651C208.525 288.911 236.739 341.696 238.904 337.51C241.069 333.325 254.058 276.373 254.058 276.373V253.913C254.058 253.913 247.257 259.65 234.719 259.65C222.181 259.65 203.853 246.589 203.853 246.589Z" fill="#999999" stroke="#263238" stroke-linecap="round" stroke-linejoin="round"/>
<path d="M245.705 277.546C248.631 275.759 251.428 273.77 254.076 271.592V253.913C254.076 253.913 247.275 259.65 234.737 259.65C222.199 259.65 203.853 246.589 203.853 246.589C203.853 246.589 203.853 247.365 203.853 248.682C203.853 251.099 204.033 255.374 204.249 260.137C204.744 260.93 205.299 261.684 205.909 262.392C209.517 266.559 226.799 277.022 230.985 278.069C235.17 279.115 240.997 280.143 245.705 277.546Z" fill="#263238" stroke="#263238" stroke-linecap="round" stroke-linejoin="round"/>
<path d="M266.613 216.281C266.613 216.281 274.966 211.573 274.966 220.467C274.966 229.36 267.136 239.806 267.136 239.806L266.613 216.281Z" fill="#999999" stroke="#263238" stroke-linecap="round" stroke-linejoin="round"/>
<path d="M191.891 216.805C191.891 216.805 180.382 213.666 180.382 224.129C180.382 234.592 190.845 241.357 190.845 241.357H198.061C198.061 241.357 202.246 251.82 205.908 255.988C209.571 260.155 226.799 270.618 230.984 271.664C235.169 272.711 240.906 273.757 245.614 271.141C251.53 267.454 256.981 263.069 261.85 258.08C263.943 255.483 267.605 237.713 267.605 237.713C267.605 237.713 268.652 205.836 266.559 194.868C264.466 183.9 250.882 166.654 232.066 164.561C213.251 162.468 195.481 177.622 192.884 189.637C190.286 201.651 191.891 216.805 191.891 216.805Z" fill="#999999" stroke="#263238" stroke-linecap="round" stroke-linejoin="round"/>
<path d="M225.843 225.175C225.843 225.175 222.235 232.481 228.459 234.574C234.682 236.667 242.566 236.144 244.135 233.005C245.705 229.866 243.089 226.222 243.089 226.222" stroke="#263238" stroke-linecap="round" stroke-linejoin="round"/>
<path d="M219.583 238.236C219.583 238.236 232.644 249.205 250.413 238.76" stroke="#263238" stroke-linecap="round" stroke-linejoin="round"/>
<path d="M226.89 248.158C226.89 248.158 237.876 254.436 245.182 247.112" stroke="#263238" stroke-linecap="round" stroke-linejoin="round"/>
<path d="M220.629 218.897C222.074 218.897 223.245 217.024 223.245 214.712C223.245 212.401 222.074 210.527 220.629 210.527C219.185 210.527 218.014 212.401 218.014 214.712C218.014 217.024 219.185 218.897 220.629 218.897Z" fill="#263238"/>
<path d="M248.844 214.189C248.844 216.498 247.671 218.375 246.228 218.375C244.785 218.375 243.612 216.571 243.612 214.189C243.612 211.808 244.785 210.022 246.228 210.022C247.671 210.022 248.844 211.88 248.844 214.189Z" fill="#263238"/>
<path d="M213.306 208.975C213.306 208.975 215.921 204.79 225.934 206.359" stroke="#263238" stroke-linecap="round" stroke-linejoin="round"/>
<path d="M242.043 206.883C242.043 206.883 246.751 199.558 254.076 206.883" stroke="#263238" stroke-linecap="round" stroke-linejoin="round"/>
<path d="M266.614 194.832C265.935 191.729 264.759 188.757 263.132 186.029C262.524 188.921 262.311 191.883 262.501 194.832C263.258 198.657 265.946 203.997 265.946 206.667C265.946 209.336 265.549 220.034 267.462 218.519C267.651 218.319 267.804 218.087 267.913 217.833C268.032 210.145 267.598 202.458 266.614 194.832Z" fill="#263238" stroke="#263238" stroke-linecap="round" stroke-linejoin="round"/>
<path d="M240.347 173.184C243.701 173.007 247.04 172.603 250.341 171.976C245.011 167.986 238.729 165.46 232.12 164.651C213.305 162.559 195.535 177.712 192.938 189.727C190.34 201.742 191.891 216.895 191.891 216.895C191.891 216.895 196.04 219.782 197.574 216.733C199.107 213.684 197.574 208.705 199.107 203.365C200.641 198.025 202.914 195.337 203.293 191.134C203.671 186.931 201.001 180.833 202.535 177.388C204.068 173.942 213.611 167.466 219.727 169.757C226.307 172.249 233.315 173.414 240.347 173.184Z" fill="#263238" stroke="#263238" stroke-linecap="round" stroke-linejoin="round"/>
</svg>
