<svg width="33" height="57" viewBox="0 0 33 57" fill="none" xmlns="http://www.w3.org/2000/svg">
<path d="M31.6078 25.1262L8.07539 1.39579C7.63656 0.953267 7.1156 0.602243 6.54225 0.362754C5.96889 0.123265 5.35437 0 4.73378 0C3.48043 0 2.27842 0.502079 1.39218 1.39579C0.95335 1.8383 0.60525 2.36365 0.367759 2.94183C0.130268 3.52001 0.00803672 4.13969 0.00803672 4.76551C0.00803672 6.0294 0.505926 7.24153 1.39218 8.13523L21.6301 28.4959L1.39218 48.8567C0.951044 49.2979 0.600907 49.8228 0.361965 50.4012C0.123023 50.9795 0 51.5999 0 52.2264C0 52.8529 0.123023 53.4733 0.361965 54.0516C0.600907 54.63 0.951044 55.1549 1.39218 55.5961C1.8297 56.041 2.35025 56.394 2.92377 56.635C3.4973 56.8759 4.11247 57 4.73378 57C5.35509 57 5.97026 56.8759 6.54379 56.635C7.11731 56.394 7.63786 56.041 8.07539 55.5961L31.6078 31.8657C32.049 31.4245 32.3991 30.8995 32.638 30.3212C32.877 29.7428 33 29.1225 33 28.4959C33 27.8694 32.877 27.2491 32.638 26.6707C32.3991 26.0924 32.049 25.5674 31.6078 25.1262Z" fill="#0B8FAC"/>
</svg>
