<svg width="60" height="48" viewBox="0 0 60 48" fill="none" xmlns="http://www.w3.org/2000/svg">
<path d="M54 0H6C2.7 0 0.03 2.7 0.03 6L0 42C0 45.3 2.7 48 6 48H54C57.3 48 60 45.3 60 42V6C60 2.7 57.3 0 54 0ZM54 10.8915C54 11.5811 53.6448 12.222 53.06 12.5875L31.06 26.3375C30.4115 26.7428 29.5885 26.7428 28.94 26.3375L6.94 12.5875C6.35524 12.222 6 11.5811 6 10.8915V9.6085C6 8.03762 7.7279 7.07994 9.06 7.9125L28.94 20.3375C29.5885 20.7428 30.4115 20.7428 31.06 20.3375L50.94 7.9125C52.2721 7.07994 54 8.03762 54 9.60849V10.8915Z" fill="#0B8FAC"/>
</svg>
