<svg width="58" height="57" viewBox="0 0 58 57" fill="none" xmlns="http://www.w3.org/2000/svg">
<path d="M8.51691 48.3287C6.94682 48.3287 5.67402 47.0559 5.67402 45.4859C5.67402 43.9158 6.9751 42.643 8.54518 42.643C10.1468 42.643 11.474 41.3446 11.474 39.743V22.7427C11.474 18.81 12.6824 15.3161 15.099 12.261C16.9462 9.92576 19.2169 8.20564 21.9112 7.1006C23.4045 6.48814 24.524 5.11913 24.524 3.50509C24.524 1.56905 26.0935 -0.000433624 28.0295 -0.000433624H29.7192C31.6549 -0.000433624 33.224 1.56872 33.224 3.50436C33.224 5.11866 34.3441 6.48768 35.8378 7.09997C38.5317 8.20426 40.8021 9.92459 42.649 12.261C45.0657 15.318 46.274 18.8119 46.274 22.7427V39.743C46.274 41.3446 47.6012 42.643 49.2029 42.643C50.7729 42.643 52.074 43.9158 52.074 45.4859C52.074 47.0559 50.8012 48.3287 49.2311 48.3287H8.51691ZM28.874 56.8574C27.279 56.8574 25.9141 56.3012 24.7792 55.1886C23.0096 53.4539 25.0845 51.1716 27.5626 51.1716H30.1865C32.6649 51.1716 34.7401 53.4522 32.9717 55.1886C31.8369 56.3031 30.4709 56.8593 28.874 56.8574ZM2.77476 22.7427C1.17273 22.7427 -0.142693 21.4407 0.0127569 19.8462C0.366382 16.219 1.39604 12.8377 3.10172 9.70236C4.80207 6.5768 6.96176 3.87194 9.5808 1.5878C10.7471 0.570606 12.507 0.849151 13.4348 2.08773C14.3884 3.36067 14.096 5.15607 12.9283 6.23591C11.0555 7.96771 9.49579 9.98743 8.24922 12.2951C6.97993 14.6448 6.17986 17.1632 5.849 19.8504C5.65329 21.4398 4.37622 22.7427 2.77476 22.7427ZM54.9752 22.7427C53.3729 22.7427 52.0955 21.4387 51.8999 19.8484C51.5696 17.162 50.7692 14.6442 49.4988 12.2951C48.2512 9.98801 46.6921 7.96872 44.8215 6.23721C43.6541 5.15657 43.3623 3.36093 44.3161 2.08777C45.2441 0.848958 47.0041 0.56982 48.1711 1.58671C50.7914 3.87001 52.9517 6.57523 54.6521 9.70236C56.3579 12.8395 57.3864 16.2214 57.7375 19.848C57.8918 21.4419 56.5765 22.7427 54.9752 22.7427Z" fill="black"/>
</svg>
