<svg width="48" height="63" viewBox="0 0 48 63" fill="none" xmlns="http://www.w3.org/2000/svg">
<path d="M6 63C4.35 63 2.938 62.413 1.764 61.239C0.589999 60.065 0.002 58.652 0 57V27C0 25.35 0.587999 23.938 1.764 22.764C2.94 21.59 4.352 21.002 6 21H9V15C9 10.85 10.463 7.313 13.389 4.389C16.315 1.465 19.852 0.00200205 24 2.04778e-06C28.148 -0.00199795 31.686 1.461 34.614 4.389C37.542 7.317 39.004 10.854 39 15V21H42C43.65 21 45.063 21.588 46.239 22.764C47.415 23.94 48.002 25.352 48 27V57C48 58.65 47.413 60.063 46.239 61.239C45.065 62.415 43.652 63.002 42 63H6ZM28.239 46.239C29.413 45.063 30 43.65 30 42C30 40.35 29.413 38.938 28.239 37.764C27.065 36.59 25.652 36.002 24 36C22.348 35.998 20.936 36.586 19.764 37.764C18.592 38.942 18.004 40.354 18 42C17.996 43.646 18.584 45.059 19.764 46.239C20.944 47.419 22.356 48.006 24 48C25.644 47.994 27.057 47.407 28.239 46.239ZM15 21H33V15C33 12.5 32.125 10.375 30.375 8.625C28.625 6.875 26.5 6 24 6C21.5 6 19.375 6.875 17.625 8.625C15.875 10.375 15 12.5 15 15V21Z" fill="#0B8FAC"/>
</svg>
